<svg xmlns="http://www.w3.org/2000/svg" viewBox="0 0 500 500"><g id="freepik--background-simple--inject-18"><path d="M443.35,336.8c-21.66,34.4-58.5,68.85-101,72.48-64.24,5.5-81.59,52.76-189,25.73a223,223,0,0,1-45.42-16.6,185.67,185.67,0,0,1-20.51-11.9c-58-38.78-79.26-102.06-69.74-161.67,12.51-78.39,74.37-104.15,114.08-118.5s99.59-89.51,205.38-63.78a216.91,216.91,0,0,1,46.69,17c33.83,17.15,65.82,46.18,80.48,82,1.1,2.69,2.11,5.41,3.06,8.17C485.72,223.69,472.9,289.9,443.35,336.8Z" style="fill:#FF725E"></path><path d="M443.35,336.8c-21.66,34.4-58.5,68.85-101,72.48-64.24,5.5-81.59,52.76-189,25.73a223,223,0,0,1-45.42-16.6,185.67,185.67,0,0,1-20.51-11.9c-58-38.78-79.26-102.06-69.74-161.67,12.51-78.39,74.37-104.15,114.08-118.5s99.59-89.51,205.38-63.78a216.91,216.91,0,0,1,46.69,17c33.83,17.15,65.82,46.18,80.48,82,1.1,2.69,2.11,5.41,3.06,8.17C485.72,223.69,472.9,289.9,443.35,336.8Z" style="fill:#fff;opacity:0.8"></path></g><g id="freepik--Clouds--inject-18"><path d="M379.7,59.76s-7.55-12.36-19.22-11.67-15.78,8.23-19.21,13.72-4.8,2.06-13.72-.68-13,2.06-15.1,6.86-1.37,1.37-9.6,0-8.45,3.54-13.73,6.17c-4.3,2.15-5.22,2.25-10,1-5.93-1.61-7.87-.27-9.24,2.48H409.1s-2.64-11-8.82-13.73S385.87,66.62,379.7,59.76Z" style="fill:none;stroke:#000;stroke-miterlimit:10;opacity:0.30000000000000004"></path><path d="M172.06,91.83s-4.2-6.88-10.7-6.5-8.78,4.59-10.69,7.64S148,94.12,143,92.59s-7.25,1.15-8.4,3.82-.76.76-5.34,0-4.7,2-7.64,3.44c-2.39,1.19-2.91,1.24-5.55.53-3.3-.9-4.38-.15-5.14,1.37h77.46s-1.47-6.11-4.91-7.63S175.49,95.64,172.06,91.83Z" style="fill:none;stroke:#000;stroke-miterlimit:10;opacity:0.30000000000000004"></path><path d="M401.44,91.25s-2.19-3.58-5.57-3.39-4.58,2.39-5.57,4-1.4.6-4-.2a3.24,3.24,0,0,0-4.38,2c-.6,1.4-.4.4-2.78,0s-2.45,1-4,1.79a3,3,0,0,1-2.89.28c-1.72-.46-2.28-.08-2.68.72H410s-.76-3.18-2.56-4S403.23,93.24,401.44,91.25Z" style="fill:none;stroke:#000;stroke-miterlimit:10;opacity:0.30000000000000004"></path></g><g id="freepik--Plants--inject-18"><path d="M436.7,405.08a12.33,12.33,0,0,0,3.63.23s-.63-1.66-.68-1.76c-.62-1.15-2.49-3-3.93-2.74a1.73,1.73,0,0,0-1.28,2.23A3.61,3.61,0,0,0,436.7,405.08Z" style="fill:#263238"></path><path d="M469.87,394.76c-1.46-.08-3.09,2-3.56,3.2,0,.11-.5,1.83-.47,1.83h0l-.83,1.07c-.53.73-1.13,1.55-1.72,2.49a31,31,0,0,0-1.76,3.12,23.08,23.08,0,0,0-1.46,3.74.07.07,0,0,1,0,.05c0-.43-.08-1.62-.1-1.72-.23-1.28-1.43-3.63-2.88-3.83a1.73,1.73,0,0,0-1.91,1.72,3.62,3.62,0,0,0,1.51,2.64,11.91,11.91,0,0,0,3.35,1.34,30.4,30.4,0,0,0-.78,4c-.1.78-.18,1.58-.25,2.38,0-.37,0-.7,0-.74-.23-1.29-1.43-3.64-2.88-3.84a1.73,1.73,0,0,0-1.91,1.72,3.62,3.62,0,0,0,1.51,2.64A11.37,11.37,0,0,0,459,417.9c0,.3-.05.61-.07.92-.11,1.47-.21,2.94-.35,4.38,0,.51-.12,1-.18,1.51,0-.33,0-.61-.05-.65-.23-1.28-1.43-3.63-2.88-3.83a1.73,1.73,0,0,0-1.91,1.72,3.6,3.6,0,0,0,1.51,2.64,11.4,11.4,0,0,0,3.15,1.29c-.08.51-.16,1-.26,1.51-.08.33-.13.65-.23,1l-.26,1c-.2.61-.39,1.25-.59,1.84l-.41,1.2c.05-.5.14-1.49.14-1.58a6.69,6.69,0,0,0-1.06-3.22,1.58,1.58,0,0,0,0-.38,1.73,1.73,0,0,0-2.18-1.37c-1.4.44-2.17,3-2.18,4.27,0,.08.09.91.16,1.44-.09-.3-.17-.6-.26-.91-.18-.62-.37-1.23-.58-1.89-.11-.31-.23-.63-.34-.95s-.26-.64-.39-1c-.31-.75-.67-1.5-1-2.24a11.55,11.55,0,0,0,3.2-1.37,3.65,3.65,0,0,0,1.46-2.67,1.73,1.73,0,0,0-1.95-1.68c-1.45.22-2.6,2.6-2.8,3.89,0,.08-.06,1-.07,1.54-.23-.45-.45-.89-.7-1.33-.71-1.28-1.47-2.55-2.22-3.82-.23-.39-.46-.78-.68-1.17a11.92,11.92,0,0,0,3.31-1.41,3.63,3.63,0,0,0,1.47-2.67,1.74,1.74,0,0,0-2-1.68c-1.44.23-2.59,2.6-2.79,3.89,0,.1-.08,1.45-.08,1.8-.49-.86-1-1.72-1.43-2.59a30.85,30.85,0,0,1-1.6-3.61,12.35,12.35,0,0,0,3.34-1.42,3.65,3.65,0,0,0,1.46-2.67,1.73,1.73,0,0,0-1.95-1.68c-1.45.23-2.6,2.6-2.8,3.89,0,.1-.08,1.56-.07,1.83l-.09-.22a22.82,22.82,0,0,1-.92-3.85c-.12-.72-.19-1.42-.24-2.1a11.86,11.86,0,0,0,3.39-1,3.66,3.66,0,0,0,1.75-2.5,1.73,1.73,0,0,0-1.76-1.88c-1.46.07-2.86,2.3-3.21,3.56,0,.07-.13.78-.2,1.31,0-.31-.05-.63-.06-.92-.05-1.11,0-2.12,0-3,0-.51.05-1,.08-1.4a11.71,11.71,0,0,0,2.52-2.46,3.63,3.63,0,0,0,.4-3,1.73,1.73,0,0,0-2.43-.86c-1.26.73-1.48,3.36-1.2,4.63,0,.11.59,1.79.61,1.78l0,0c0,.41-.08.86-.11,1.35,0,.9-.09,1.91-.06,3a30.83,30.83,0,0,0,.25,3.58,23.19,23.19,0,0,0,.85,3.92s0,0,0,0c-.25-.35-1-1.31-1-1.38-.9-.94-3.2-2.24-4.51-1.61a1.74,1.74,0,0,0-.65,2.5,3.57,3.57,0,0,0,2.72,1.36,11.7,11.7,0,0,0,3.53-.73,29.06,29.06,0,0,0,1.57,3.78c.34.71.72,1.42,1.1,2.13l-.45-.6c-.91-.94-3.2-2.24-4.52-1.61a1.73,1.73,0,0,0-.65,2.49,3.58,3.58,0,0,0,2.72,1.37,11.47,11.47,0,0,0,3.44-.69c.15.27.29.54.44.8.73,1.29,1.46,2.58,2.13,3.85.24.46.46.91.68,1.36l-.4-.51c-.9-1-3.19-2.25-4.51-1.61a1.73,1.73,0,0,0-.65,2.49,3.6,3.6,0,0,0,2.72,1.36,10.81,10.81,0,0,0,3.34-.66c.21.47.43.94.61,1.41s.25.62.36.94.21.65.31,1c.18.62.37,1.26.53,1.86.11.42.22.83.32,1.23-.23-.45-.71-1.32-.76-1.39-.74-1.07-2.81-2.71-4.21-2.28a1.74,1.74,0,0,0-1,2.37,3.6,3.6,0,0,0,2.48,1.76,12.09,12.09,0,0,0,3.58-.18c.17.67.33,1.33.46,1.95.07.31.14.62.2.91h.92q-.13-.54-.27-1.11c-.17-.68-.36-1.41-.57-2.16a16.79,16.79,0,0,0,1.95-1,12.66,12.66,0,0,0,3,1.74c-.23.65-.46,1.29-.68,1.88a6.82,6.82,0,0,1-.36.68h1a2.4,2.4,0,0,0,.2-.38c.24-.66.48-1.37.71-2.11a11.62,11.62,0,0,0,3.59.11,3.6,3.6,0,0,0,2.44-1.81,1.72,1.72,0,0,0-1.06-2.34c-1.41-.4-3.45,1.27-4.17,2.35,0,.07-.43.82-.67,1.29.1-.3.2-.59.29-.9.19-.61.37-1.23.56-1.89l.24-1c.09-.33.14-.69.21-1,.15-.8.27-1.62.36-2.44a11.82,11.82,0,0,0,3.43.62,3.63,3.63,0,0,0,2.69-1.42,1.73,1.73,0,0,0-.7-2.48c-1.33-.61-3.6.73-4.48,1.7-.05.06-.61.82-.9,1.25.05-.5.11-1,.15-1.5.11-1.46.18-2.94.25-4.41,0-.45.05-.9.08-1.35a12,12,0,0,0,3.54.65,3.56,3.56,0,0,0,2.69-1.42,1.72,1.72,0,0,0-.7-2.47c-1.33-.61-3.6.73-4.48,1.7-.06.07-.86,1.17-1,1.46.06-1,.12-2,.23-2.95a30.21,30.21,0,0,1,.66-3.9,12.28,12.28,0,0,0,3.56.66,3.6,3.6,0,0,0,2.69-1.42,1.73,1.73,0,0,0-.69-2.48c-1.33-.61-3.6.74-4.48,1.7-.07.08-.93,1.26-1.07,1.49,0-.08,0-.16.05-.23a22.34,22.34,0,0,1,1.35-3.72c.31-.67.63-1.29,1-1.88a11.93,11.93,0,0,0,3.39,1,3.63,3.63,0,0,0,2.83-1.11,1.72,1.72,0,0,0-.42-2.54c-1.25-.76-3.66.33-4.64,1.19l-.89,1c.15-.27.3-.54.46-.8.56-.94,1.14-1.78,1.66-2.51.3-.42.58-.79.84-1.13a11.68,11.68,0,0,0,3.46-.66,3.65,3.65,0,0,0,2-2.3A1.74,1.74,0,0,0,469.87,394.76Z" style="fill:#263238"></path><path d="M462.66,404.42s.39-1.73.4-1.84c.11-1.3-.42-3.89-1.77-4.46a1.73,1.73,0,0,0-2.3,1.15,3.6,3.6,0,0,0,.77,3A12.63,12.63,0,0,0,462.66,404.42Z" style="fill:#263238"></path><path d="M21.15,420.93a6,6,0,0,0,1.72.11s-.3-.79-.32-.83c-.29-.55-1.18-1.43-1.86-1.31a.82.82,0,0,0-.61,1.06A1.72,1.72,0,0,0,21.15,420.93Z" style="fill:#263238"></path><path d="M36.88,416c-.69,0-1.46.94-1.69,1.51,0,.05-.23.87-.22.87h0c-.13.15-.26.32-.4.5-.25.35-.53.74-.81,1.18a13,13,0,0,0-.84,1.49,10.87,10.87,0,0,0-.69,1.77v0c0-.2,0-.77,0-.81-.11-.61-.68-1.73-1.37-1.82a.83.83,0,0,0-.91.82,1.75,1.75,0,0,0,.72,1.25,5.57,5.57,0,0,0,1.59.63,14.34,14.34,0,0,0-.37,1.91c-.05.37-.08.75-.12,1.13,0-.18,0-.33,0-.36-.11-.61-.68-1.72-1.37-1.81a.82.82,0,0,0-.91.81,1.73,1.73,0,0,0,.72,1.25,5.62,5.62,0,0,0,1.54.63l0,.43c-.05.7-.1,1.4-.17,2.08,0,.24-.05.48-.08.72a2.13,2.13,0,0,0,0-.31c-.1-.61-.67-1.72-1.36-1.82a.83.83,0,0,0-.91.82,1.7,1.7,0,0,0,.72,1.25,5.27,5.27,0,0,0,1.5.61c0,.24-.08.48-.13.72s-.06.31-.11.47-.08.3-.13.46l-.27.87-.2.57c0-.24.07-.71.07-.75a3.24,3.24,0,0,0-.5-1.53,1.1,1.1,0,0,0,0-.18.83.83,0,0,0-1-.65c-.66.21-1,1.41-1,2,0,0,0,.43.07.68,0-.14-.07-.28-.12-.43s-.17-.58-.27-.89c-.06-.15-.11-.3-.16-.46s-.13-.3-.19-.46c-.15-.35-.32-.71-.49-1.06a5.24,5.24,0,0,0,1.51-.65,1.73,1.73,0,0,0,.7-1.27.82.82,0,0,0-.93-.79c-.68.1-1.23,1.23-1.33,1.84,0,0,0,.49,0,.73-.11-.21-.21-.42-.33-.63-.34-.6-.7-1.21-1.05-1.81l-.33-.55a6.16,6.16,0,0,0,1.58-.67,1.72,1.72,0,0,0,.69-1.27.82.82,0,0,0-.93-.79c-.68.1-1.23,1.23-1.32,1.84,0,0,0,.69,0,.85-.23-.4-.47-.81-.68-1.22a15.28,15.28,0,0,1-.76-1.72,5.52,5.52,0,0,0,1.59-.67,1.72,1.72,0,0,0,.69-1.26.82.82,0,0,0-.93-.8c-.68.11-1.23,1.23-1.32,1.84,0,.05,0,.74,0,.87a.3.3,0,0,0,0-.1,10.73,10.73,0,0,1-.43-1.83c-.06-.34-.09-.67-.12-1a5.24,5.24,0,0,0,1.61-.48,1.74,1.74,0,0,0,.83-1.18.82.82,0,0,0-.83-.9c-.7,0-1.36,1.09-1.53,1.69,0,0-.06.37-.09.62l0-.43c0-.53,0-1,0-1.44,0-.24,0-.46,0-.66a5.62,5.62,0,0,0,1.19-1.17,1.72,1.72,0,0,0,.19-1.43.82.82,0,0,0-1.15-.41c-.6.35-.7,1.59-.57,2.2,0,.05.28.85.29.84h0c0,.2,0,.41-.05.64,0,.43,0,.91,0,1.44a14.9,14.9,0,0,0,.12,1.69,10.94,10.94,0,0,0,.41,1.86v0l-.49-.66c-.43-.44-1.52-1.06-2.14-.76a.82.82,0,0,0-.31,1.18,1.72,1.72,0,0,0,1.29.65,5.6,5.6,0,0,0,1.67-.35,14.47,14.47,0,0,0,.75,1.79c.16.34.34.68.52,1l-.22-.28c-.42-.45-1.51-1.06-2.14-.76A.81.81,0,0,0,22,427a1.72,1.72,0,0,0,1.29.65,5.63,5.63,0,0,0,1.62-.33c.07.13.14.26.22.38.34.61.69,1.22,1,1.83l.32.64-.19-.24c-.43-.45-1.52-1.07-2.14-.77a.83.83,0,0,0-.31,1.19,1.72,1.72,0,0,0,1.29.64,5.09,5.09,0,0,0,1.58-.31,6.31,6.31,0,0,1,.29.66c.06.16.12.3.17.45l.15.46c.09.29.18.59.25.88s.1.39.15.58l-.35-.66c-.36-.5-1.34-1.28-2-1.08a.83.83,0,0,0-.49,1.13,1.7,1.7,0,0,0,1.18.83,5.71,5.71,0,0,0,1.7-.08c.08.31.15.63.22.92l.09.43h.43l-.12-.52c-.08-.33-.17-.67-.27-1a6.94,6.94,0,0,0,.92-.49,6.07,6.07,0,0,0,1.43.83c-.11.31-.22.61-.33.89a2.61,2.61,0,0,1-.17.32h.46a1.19,1.19,0,0,0,.1-.18c.11-.31.22-.65.34-1a5.53,5.53,0,0,0,1.7,0,1.72,1.72,0,0,0,1.16-.85.84.84,0,0,0-.51-1.12c-.67-.19-1.63.61-2,1.12l-.31.61c0-.14.09-.28.13-.43s.18-.58.27-.89c0-.16.07-.31.11-.47s.07-.32.1-.48a11.17,11.17,0,0,0,.17-1.16,5.29,5.29,0,0,0,1.63.29,1.72,1.72,0,0,0,1.28-.67.82.82,0,0,0-.34-1.18c-.63-.29-1.7.35-2.12.81,0,0-.29.39-.43.59,0-.24.05-.47.07-.71.05-.69.09-1.39.12-2.09,0-.22,0-.43,0-.64a5.69,5.69,0,0,0,1.68.31,1.68,1.68,0,0,0,1.27-.67.81.81,0,0,0-.33-1.18c-.63-.29-1.7.35-2.12.81,0,0-.41.55-.5.69,0-.47.06-.94.11-1.4a15.18,15.18,0,0,1,.31-1.85,5.6,5.6,0,0,0,1.69.32,1.73,1.73,0,0,0,1.28-.68A.82.82,0,0,0,35,422c-.63-.29-1.71.35-2.13.8,0,0-.44.6-.5.71s0-.08,0-.11a10.58,10.58,0,0,1,.64-1.77c.15-.31.3-.61.46-.89a5.25,5.25,0,0,0,1.6.48,1.68,1.68,0,0,0,1.35-.53.82.82,0,0,0-.2-1.2c-.6-.36-1.74.16-2.2.57,0,0-.26.27-.43.46.08-.12.15-.26.22-.38.27-.45.54-.84.79-1.19.14-.2.27-.37.4-.53a5.73,5.73,0,0,0,1.64-.32,1.69,1.69,0,0,0,.95-1.09A.82.82,0,0,0,36.88,416Z" style="fill:#263238"></path><path d="M33.46,420.61s.18-.81.19-.87c.06-.61-.2-1.84-.84-2.11a.81.81,0,0,0-1.09.55,1.75,1.75,0,0,0,.36,1.39A6,6,0,0,0,33.46,420.61Z" style="fill:#263238"></path></g><g id="freepik--Trees--inject-18"><path d="M478.14,210.67c0,49.2-24.89,68.84-55.58,68.84S367,259.87,367,210.67,391.86,89.19,422.56,89.19,478.14,161.47,478.14,210.67Z" style="fill:#FF725E"></path><path d="M478.14,210.67c0,49.2-24.89,68.84-55.58,68.84S367,259.87,367,210.67,391.86,89.19,422.56,89.19,478.14,161.47,478.14,210.67Z" style="fill:#fff;opacity:0.5"></path><polygon points="414.24 436.75 429.79 436.75 423.75 220.6 424.24 227.02 454 191.09 423.72 219.68 422.65 181.43 435.47 166.38 422.5 176.11 422 157.96 421.03 192.71 406.27 183.23 420.91 196.82 414.24 436.75" style="fill:#bababa"></polygon><polygon points="419.19 250.6 393.36 233.19 419.19 256.77 419.19 250.6" style="fill:#bababa"></polygon><path d="M78.15,304.13c0,28.86-14.6,40.38-32.61,40.38S12.94,333,12.94,304.13s14.59-71.27,32.6-71.27S78.15,275.27,78.15,304.13Z" style="fill:#FF725E"></path><path d="M78.15,304.13c0,28.86-14.6,40.38-32.61,40.38S12.94,333,12.94,304.13s14.59-71.27,32.6-71.27S78.15,275.27,78.15,304.13Z" style="fill:#fff;opacity:0.5"></path><polygon points="40.66 436.75 49.78 436.75 46.24 309.95 46.53 313.72 63.98 292.64 46.22 309.41 45.6 286.98 53.12 278.15 45.51 283.85 45.21 273.21 44.64 293.59 35.99 288.03 44.58 296 40.66 436.75" style="fill:#bababa"></polygon><polygon points="43.56 327.55 28.41 317.34 43.56 331.17 43.56 327.55" style="fill:#bababa"></polygon></g><g id="freepik--Ambulance--inject-18"><rect x="106.62" y="319.15" width="9.77" height="18.25" rx="3.03" transform="translate(223.01 656.56) rotate(180)" style="fill:#263238;stroke:#263238;stroke-linecap:round;stroke-linejoin:round"></rect><rect x="106.62" y="339.31" width="9.77" height="18.25" rx="3.03" transform="translate(223.01 696.87) rotate(180)" style="fill:#263238;stroke:#263238;stroke-linecap:round;stroke-linejoin:round"></rect><polyline points="132.49 316.54 113.36 316.54 113.36 357.56 134.8 357.56" style="fill:none;stroke:#263238;stroke-linecap:round;stroke-linejoin:round"></polyline><rect x="107.36" y="364.5" width="339.89" height="53.81" style="fill:#263238;stroke:#263238;stroke-linecap:round;stroke-linejoin:round"></rect><path d="M326.18,413.85A22.89,22.89,0,0,0,303.29,391H295.5a22.9,22.9,0,0,0,0,45.79h7.79A22.89,22.89,0,0,0,326.18,413.85Z" style="fill:#263238;stroke:#263238;stroke-linecap:round;stroke-linejoin:round"></path><rect x="164.66" y="266.48" width="100.14" height="151.82" style="fill:#fff;stroke:#263238;stroke-linecap:round;stroke-linejoin:round"></rect><rect x="164.66" y="266.48" width="100.14" height="3.65" style="fill:#fff;stroke:#263238;stroke-linecap:round;stroke-linejoin:round"></rect><path d="M264.29,266.48V418.3h78.76c-.07-.86-.11-1.73-.11-2.62,0-17.28,13.61-31.28,30.41-31.28s30.42,14,30.42,31.28c0,.89,0,1.76-.11,2.62h43.59V266.48Z" style="fill:#fff;stroke:#263238;stroke-linecap:round;stroke-linejoin:round"></path><polygon points="446.71 357.37 152.5 357.37 136.94 364.16 136.94 375.18 446.71 375.18 446.71 357.37" style="fill:#FF725E"></polygon><line x1="264.28" y1="377.98" x2="264.28" y2="351.94" style="fill:#fff;stroke:#263238;stroke-linecap:round;stroke-linejoin:round"></line><rect x="264.29" y="266.48" width="182.96" height="3.85" style="fill:#fff;stroke:#263238;stroke-linecap:round;stroke-linejoin:round"></rect><path d="M123.71,413.85A22.89,22.89,0,0,0,100.82,391H93a22.9,22.9,0,0,0,0,45.79h7.79A22.89,22.89,0,0,0,123.71,413.85Z" style="fill:#263238;stroke:#263238;stroke-linecap:round;stroke-linejoin:round"></path><path d="M209.78,308.33H138.6L110.67,340.4a13.31,13.31,0,0,1-5.28,3.7L63.14,360.39a7.3,7.3,0,0,0-4.66,6.21l-1.62,28.62h67.83l4.94,7.32h81V311.08Z" style="fill:#fff;stroke:#263238;stroke-linecap:round;stroke-linejoin:round"></path><path d="M192.3,413.85a22.89,22.89,0,0,0-15.11-21.53V391H169.4a22.9,22.9,0,0,0,0,45.79h7.79v-1.36A22.92,22.92,0,0,0,192.3,413.85Z" style="fill:#263238;stroke:#263238;stroke-linecap:round;stroke-linejoin:round"></path><circle cx="177.19" cy="413.85" r="22.89" transform="translate(-240.74 246.5) rotate(-45)" style="fill:#757575;stroke:#263238;stroke-linecap:round;stroke-linejoin:round"></circle><circle cx="177.19" cy="413.85" r="12.14" style="fill:#fff;stroke:#263238;stroke-linecap:round;stroke-linejoin:round"></circle><path d="M391.63,413.85a22.88,22.88,0,0,0-15.1-21.53V391h-7.79a22.9,22.9,0,0,0,0,45.79h7.79v-1.36A22.91,22.91,0,0,0,391.63,413.85Z" style="fill:#263238;stroke:#263238;stroke-linecap:round;stroke-linejoin:round"></path><circle cx="376.53" cy="413.85" r="22.89" transform="translate(-113.4 684.08) rotate(-76.58)" style="fill:#757575;stroke:#263238;stroke-linecap:round;stroke-linejoin:round"></circle><circle cx="376.53" cy="413.85" r="12.14" style="fill:#fff;stroke:#263238;stroke-linecap:round;stroke-linejoin:round"></circle><path d="M209.78,308.33,181.85,340.4a13.24,13.24,0,0,1-5.28,3.7l-42.25,16.29a7.33,7.33,0,0,0-4.66,6.21L128,395.22h20.74l.44-.61a20.25,20.25,0,0,1,16.36-8.33h13.51c6.72,0,14.24,2.1,18,7.67l1.1,2.27a82.63,82.63,0,0,1,6.66,19.84l0,2.06h48.37V313a4.7,4.7,0,0,0-4.69-4.7Z" style="fill:#fff;stroke:#263238;stroke-linecap:round;stroke-linejoin:round"></path><polygon points="252.4 357.37 152.38 357.37 136.94 364.16 136.94 375.18 252.4 375.18 252.4 357.37" style="fill:#FF725E"></polygon><path d="M212.6,316.54,196.8,334.9a3,3,0,0,0-.72,1.94v15.59a3.12,3.12,0,0,0,3,3.23h44.27V316.54Z" style="fill:#d4d4d4;stroke:#263238;stroke-linecap:round;stroke-linejoin:round"></path><path d="M181.85,340.4l25.86-29.69H136.53L110.67,340.4a13.31,13.31,0,0,1-5.28,3.7h71.18A13.24,13.24,0,0,0,181.85,340.4Z" style="fill:#d4d4d4;stroke:#263238;stroke-linecap:round;stroke-linejoin:round"></path><line x1="175.09" y1="318.12" x2="127.26" y2="337.98" style="fill:none;stroke:#263238;stroke-linecap:round;stroke-linejoin:round"></line><line x1="180.86" y1="315.72" x2="178.1" y2="316.87" style="fill:none;stroke:#263238;stroke-linecap:round;stroke-linejoin:round"></line><line x1="139.98" y1="329.11" x2="118.63" y2="337.98" style="fill:none;stroke:#263238;stroke-linecap:round;stroke-linejoin:round"></line><path d="M135,368.8H110.52l-3.41,18.5h26.34a2.38,2.38,0,0,0,2.21-1.52L137.25,372A2.37,2.37,0,0,0,135,368.8Z" style="fill:#fff;stroke:#263238;stroke-linecap:round;stroke-linejoin:round"></path><polygon points="57.53 387.3 69.54 387.3 66.13 368.8 58.29 368.8 57.53 387.3" style="fill:#fff;stroke:#263238;stroke-linecap:round;stroke-linejoin:round"></polygon><polygon points="66.13 368.8 113.94 368.8 110.36 391.05 69.93 391.05 66.13 368.8" style="fill:#263238;stroke:#263238;stroke-linecap:round;stroke-linejoin:round"></polygon><rect x="71.98" y="371.53" width="7.84" height="5.92" style="fill:#FF725E;stroke:#263238;stroke-linecap:round;stroke-linejoin:round"></rect><rect x="97.05" y="371.53" width="7.84" height="5.92" style="fill:#FF725E;stroke:#263238;stroke-linecap:round;stroke-linejoin:round"></rect><polygon points="148.78 395.23 141.32 417.84 54.67 417.84 51.18 399.23 56.86 395.23 148.78 395.23" style="fill:#757575;stroke:#263238;stroke-linecap:round;stroke-linejoin:round"></polygon><polygon points="148.78 395.23 56.86 395.23 51.18 399.23 147.45 399.23 148.78 395.23" style="fill:#9c9c9c;stroke:#263238;stroke-linecap:round;stroke-linejoin:round"></polygon><rect x="203.05" y="416.5" width="50.76" height="3.42" style="fill:#fff;stroke:#263238;stroke-linecap:round;stroke-linejoin:round"></rect><rect x="224.88" y="319.15" width="9.77" height="18.25" rx="3.03" style="fill:#263238;stroke:#263238;stroke-linecap:round;stroke-linejoin:round"></rect><rect x="224.88" y="339.31" width="9.77" height="18.25" rx="3.03" style="fill:#263238;stroke:#263238;stroke-linecap:round;stroke-linejoin:round"></rect><polyline points="212.6 316.54 227.91 316.54 227.91 357.56 206.47 357.56" style="fill:none;stroke:#263238;stroke-linecap:round;stroke-linejoin:round"></polyline><line x1="219.02" y1="316.62" x2="219.02" y2="357.7" style="fill:none;stroke:#263238;stroke-linecap:round;stroke-linejoin:round"></line><rect x="172.17" y="276.26" width="84.46" height="8.6" style="fill:#FF725E;stroke:#263238;stroke-linecap:round;stroke-linejoin:round"></rect><rect x="168.71" y="276.26" width="84.46" height="8.6" style="fill:#FF725E;stroke:#263238;stroke-linecap:round;stroke-linejoin:round"></rect><rect x="205.62" y="276.26" width="10.63" height="8.6" style="fill:#fff;stroke:#263238;stroke-linecap:round;stroke-linejoin:round"></rect><rect x="274.31" y="276.66" width="13.96" height="13.96" style="fill:#FF725E;stroke:#263238;stroke-linecap:round;stroke-linejoin:round"></rect><rect x="292.91" y="276.66" width="13.96" height="13.96" style="fill:#fff;stroke:#263238;stroke-linecap:round;stroke-linejoin:round"></rect><rect x="408.86" y="276.66" width="13.96" height="13.96" style="fill:#fff;stroke:#263238;stroke-linecap:round;stroke-linejoin:round"></rect><rect x="427.47" y="276.66" width="13.96" height="13.96" style="fill:#FF725E;stroke:#263238;stroke-linecap:round;stroke-linejoin:round"></rect><rect x="270.37" y="299.41" width="21.5" height="115.15" style="fill:#fff;stroke:#263238;stroke-linecap:round;stroke-linejoin:round"></rect><rect x="294.55" y="356.6" width="21.5" height="57.95" style="fill:#fff;stroke:#263238;stroke-linecap:round;stroke-linejoin:round"></rect><rect x="318.74" y="356.6" width="21.5" height="57.95" style="fill:#fff;stroke:#263238;stroke-linecap:round;stroke-linejoin:round"></rect><rect x="405.96" y="356.6" width="37.07" height="57.95" style="fill:#fff;stroke:#263238;stroke-linecap:round;stroke-linejoin:round"></rect><path d="M177.78,308.25c-2.11-1-6.44-2.88-7.78-2.5a4.34,4.34,0,0,0-2.44,2.5Z" style="fill:#fff;stroke:#263238;stroke-linecap:round;stroke-linejoin:round"></path><path d="M188.85,308.25c-2.12-1-6.44-2.88-7.78-2.5a4.34,4.34,0,0,0-2.44,2.5Z" style="fill:#fff;stroke:#263238;stroke-linecap:round;stroke-linejoin:round"></path><path d="M199.91,308.25c-2.11-1-6.44-2.88-7.78-2.5a4.34,4.34,0,0,0-2.44,2.5Z" style="fill:#fff;stroke:#263238;stroke-linecap:round;stroke-linejoin:round"></path><path d="M135,368.8h-6.21l-1,18.5h5.6a2.38,2.38,0,0,0,2.21-1.52L137.25,372A2.37,2.37,0,0,0,135,368.8Z" style="fill:#fff;stroke:#263238;stroke-linecap:round;stroke-linejoin:round"></path><rect x="140.17" y="369.05" width="12.92" height="8.34" style="fill:#FF725E;stroke:#263238;stroke-linecap:round;stroke-linejoin:round"></rect><rect x="244.37" y="366.54" width="2.5" height="13.34" style="fill:#263238;stroke:#263238;stroke-linecap:round;stroke-linejoin:round"></rect><line x1="240.37" y1="411.42" x2="247.23" y2="411.42" style="fill:none;stroke:#263238;stroke-linecap:round;stroke-linejoin:round"></line><path d="M210.65,311.08l-22.8,27.64V384s9.52,2.67,12.94,6.47,6.85,20.94,6.85,20.94h26.82" style="fill:none;stroke:#263238;stroke-linecap:round;stroke-linejoin:round"></path><path d="M70.34,366.72l4.32-8h1.57l-1.11,8H73.76l.31-1.85h-1.4l-1,1.85Zm2.79-2.79h1.1l.59-3.37Z" style="fill:#263238"></path><path d="M75.9,366.72l2.86-8h1.52l-.75,5.56,3.08-5.56h1.46l-2.57,8H80.41l1.77-5.58-3,5.58h-.88l.74-5.6-2,5.6Z" style="fill:#263238"></path><path d="M82.63,366.72l2.72-8h2a3.76,3.76,0,0,1,.94.1,1.27,1.27,0,0,1,.63.33,1.07,1.07,0,0,1,.27.63,2.58,2.58,0,0,1-.18,1,2.68,2.68,0,0,1-.41.83,1.88,1.88,0,0,1-.58.55,2,2,0,0,1-.74.28,1.12,1.12,0,0,1,.68.33,1,1,0,0,1,.24.66,2.8,2.8,0,0,1-.18,1,4.81,4.81,0,0,1-.48,1,3,3,0,0,1-.68.73,2.65,2.65,0,0,1-.85.44,3.44,3.44,0,0,1-1,.15Zm1.82-1H85a1.44,1.44,0,0,0,1-.32,2.32,2.32,0,0,0,.58-1,2.24,2.24,0,0,0,.15-.79.52.52,0,0,0-.22-.45,1.13,1.13,0,0,0-.65-.15h-.51ZM85.71,362h.49a1.69,1.69,0,0,0,.72-.13,1.18,1.18,0,0,0,.47-.39,2.87,2.87,0,0,0,.32-.68,1.18,1.18,0,0,0,.08-.66.44.44,0,0,0-.32-.31,2.27,2.27,0,0,0-.71-.09h-.29Z" style="fill:#263238"></path><path d="M90.32,366.83A2,2,0,0,1,89,366.5a1.11,1.11,0,0,1-.37-.93,5.06,5.06,0,0,1,.3-1.45l1.84-5.43h1.43l-1.9,5.6c-.08.25-.14.49-.19.71a.79.79,0,0,0,.06.54c.07.13.23.2.48.2a1,1,0,0,0,.63-.2,1.92,1.92,0,0,0,.41-.54,5,5,0,0,0,.29-.71l1.9-5.6h1.42l-1.84,5.43a7,7,0,0,1-.68,1.45,2.86,2.86,0,0,1-1,.93A3.08,3.08,0,0,1,90.32,366.83Z" style="fill:#263238"></path><path d="M93.76,366.72l2.73-8H98l-2.37,7h1.94l-.34,1Z" style="fill:#263238"></path><path d="M97.53,366.72l4.33-8h1.57l-1.12,8H101l.31-1.85H99.87l-1,1.85Zm2.8-2.79h1.09l.6-3.37Z" style="fill:#263238"></path><path d="M103.08,366.72l2.72-8h1l.4,4.58,1.55-4.58H110l-2.72,8h-1l-.34-4.8-1.62,4.8Z" style="fill:#263238"></path><path d="M110.6,366.83a1.84,1.84,0,0,1-1.26-.35,1.18,1.18,0,0,1-.38-.94,4.35,4.35,0,0,1,.27-1.39l1-2.86a6.13,6.13,0,0,1,.68-1.43,2.84,2.84,0,0,1,1-.93,3.07,3.07,0,0,1,1.49-.33,2,2,0,0,1,1.21.28,1,1,0,0,1,.39.81,3.23,3.23,0,0,1-.21,1.22l-.23.67h-1.41l.24-.69a4.8,4.8,0,0,0,.17-.61.6.6,0,0,0,0-.45c-.06-.1-.22-.16-.47-.16a1,1,0,0,0-.61.17,1.36,1.36,0,0,0-.38.47,4.53,4.53,0,0,0-.27.66l-1.19,3.49a3.29,3.29,0,0,0-.17.72.53.53,0,0,0,.11.43.62.62,0,0,0,.45.14.93.93,0,0,0,.58-.17,1.32,1.32,0,0,0,.35-.47,5.66,5.66,0,0,0,.26-.64l.24-.72h1.41l-.22.64a5.17,5.17,0,0,1-.62,1.27,2.62,2.62,0,0,1-1,.86A2.94,2.94,0,0,1,110.6,366.83Z" style="fill:#263238"></path><path d="M113.83,366.72l2.72-8h3.37l-.34,1h-1.91l-.78,2.31h1.5l-.35,1h-1.5l-.9,2.66h1.93l-.35,1Z" style="fill:#263238"></path><rect x="435.07" y="380.57" width="6.26" height="8.18" style="fill:#263238;stroke:#263238;stroke-linecap:round;stroke-linejoin:round"></rect><rect x="307.02" y="380.57" width="6.26" height="8.18" style="fill:#263238;stroke:#263238;stroke-linecap:round;stroke-linejoin:round"></rect><rect x="320.74" y="380.57" width="6.26" height="8.18" style="fill:#263238;stroke:#263238;stroke-linecap:round;stroke-linejoin:round"></rect><rect x="282.23" y="341.34" width="6.26" height="8.18" style="fill:#263238;stroke:#263238;stroke-linecap:round;stroke-linejoin:round"></rect><path d="M341.37,337.34l1.95-9.72h1.89l2,9.72h-1.65l-.38-2.25h-1.69l-.4,2.25Zm2.25-3.37h1.32l-.66-4.08Z" style="fill:#263238"></path><path d="M348.1,337.34l.17-9.72h1.84l1.38,6.73,1.44-6.73h1.77l.18,9.72h-1.32l-.14-6.76L352,337.34H351l-1.4-6.78-.13,6.78Z" style="fill:#263238"></path><path d="M356.25,337.34v-9.72h2.39a5.26,5.26,0,0,1,1.17.12,2.31,2.31,0,0,1,.9.4,1.78,1.78,0,0,1,.58.76,3.07,3.07,0,0,1,.21,1.22,2.72,2.72,0,0,1-.17,1,1.43,1.43,0,0,1-.47.67,1.84,1.84,0,0,1-.78.33,2,2,0,0,1,.95.4,1.81,1.81,0,0,1,.57.8,3.47,3.47,0,0,1,.18,1.19,3.89,3.89,0,0,1-.17,1.23,2.38,2.38,0,0,1-.52.89,2.16,2.16,0,0,1-.85.53,3.59,3.59,0,0,1-1.19.18Zm1.78-5.75h.6a1.64,1.64,0,0,0,.81-.16.83.83,0,0,0,.41-.47,2.71,2.71,0,0,0,.11-.82,1.61,1.61,0,0,0-.17-.8.88.88,0,0,0-.53-.38,3,3,0,0,0-.88-.11H358Zm0,4.5h.67a1.27,1.27,0,0,0,1.09-.39,2,2,0,0,0,.29-1.2,2.82,2.82,0,0,0-.14-1,1,1,0,0,0-.45-.54,1.75,1.75,0,0,0-.85-.19H358Z" style="fill:#263238"></path><path d="M365.6,337.47a3.07,3.07,0,0,1-1.68-.39,2.07,2.07,0,0,1-.83-1.13,6,6,0,0,1-.23-1.75v-6.58h1.73v6.78a5.9,5.9,0,0,0,.06.86,1.29,1.29,0,0,0,.28.65,1.07,1.07,0,0,0,1.35,0,1.28,1.28,0,0,0,.27-.65,4.76,4.76,0,0,0,.07-.86v-6.78h1.72v6.58a6,6,0,0,1-.23,1.75,2.11,2.11,0,0,1-.82,1.13A3.08,3.08,0,0,1,365.6,337.47Z" style="fill:#263238"></path><path d="M369.73,337.34v-9.72h1.77v8.5h2.36v1.22Z" style="fill:#263238"></path><path d="M374.29,337.34l1.94-9.72h1.9l1.94,9.72h-1.64l-.39-2.25h-1.69l-.39,2.25Zm2.24-3.37h1.32l-.66-4.08Z" style="fill:#263238"></path><path d="M381,337.34v-9.72h1.23l2.37,5.54v-5.54h1.46v9.72h-1.18l-2.37-5.81v5.81Z" style="fill:#263238"></path><path d="M390.15,337.47a2.88,2.88,0,0,1-1.67-.42,2.17,2.17,0,0,1-.85-1.14,5.41,5.41,0,0,1-.24-1.68v-3.47a5.49,5.49,0,0,1,.24-1.72,2,2,0,0,1,.85-1.13,3,3,0,0,1,1.67-.4,3.17,3.17,0,0,1,1.58.34,1.91,1.91,0,0,1,.81,1,4.18,4.18,0,0,1,.24,1.48v.81h-1.7v-.84a5.5,5.5,0,0,0-.05-.74.94.94,0,0,0-.22-.54.89.89,0,0,0-.65-.19.9.9,0,0,0-.66.21,1,1,0,0,0-.27.56,4.83,4.83,0,0,0-.06.8v4.22a4,4,0,0,0,.08.87.94.94,0,0,0,.31.52,1,1,0,0,0,.6.17.8.8,0,0,0,.63-.21,1,1,0,0,0,.24-.56,6,6,0,0,0,.05-.77v-.88h1.7v.78a4.82,4.82,0,0,1-.23,1.53,2,2,0,0,1-.8,1A2.89,2.89,0,0,1,390.15,337.47Z" style="fill:#263238"></path><path d="M394,337.34v-9.72h4.07v1.25h-2.3v2.79h1.81v1.24h-1.81v3.22h2.33v1.22Z" style="fill:#263238"></path></g><g id="freepik--Floor--inject-18"><line x1="16.15" y1="436.75" x2="487.61" y2="436.75" style="fill:none;stroke:#263238;stroke-linecap:round;stroke-linejoin:round"></line></g></svg>