<?xml version="1.0" encoding="utf-8"?>
<!-- Generator: Adobe Illustrator 24.3.0, SVG Export Plug-In . SVG Version: 6.00 Build 0)  -->
<svg version="1.1" id="Background" xmlns="http://www.w3.org/2000/svg" xmlns:xlink="http://www.w3.org/1999/xlink" x="0px" y="0px"
	 viewBox="0 0 1200 800" style="enable-background:new 0 0 1200 800;" xml:space="preserve">
<style type="text/css">
	.st0{clip-path:url(#SVGID_2_);}
	.st1{fill:#E1EFEC;}
	.st2{opacity:0.4;fill:url(#SVGID_3_);}
	.st3{opacity:0.7;clip-path:url(#SVGID_2_);}
	.st4{fill:#FFFFFF;}
	.st5{fill:#79C9BC;}
	.st6{fill:#BDE5DE;}
</style>
<g>
	<defs>
		<rect id="SVGID_1_" x="200" y="-200" transform="matrix(6.123234e-17 -1 1 6.123234e-17 200 1000)" width="800" height="1200"/>
	</defs>
	<clipPath id="SVGID_2_">
		<use xlink:href="#SVGID_1_"  style="overflow:visible;"/>
	</clipPath>
	<g class="st0">
		<rect x="193.3" y="-210" transform="matrix(6.123234e-17 -1 1 6.123234e-17 200 1000)" class="st1" width="813.3" height="1220"/>
		
			<linearGradient id="SVGID_3_" gradientUnits="userSpaceOnUse" x1="725.0682" y1="1649.9723" x2="-303.9958" y2="-15.8605" gradientTransform="matrix(0 -1 1 0 -200 600)">
			<stop  offset="2.686120e-02" style="stop-color:#79C9BC"/>
			<stop  offset="4.851243e-02" style="stop-color:#86CEC3"/>
			<stop  offset="0.1106" style="stop-color:#A6DBD3"/>
			<stop  offset="0.1805" style="stop-color:#C2E6E1"/>
			<stop  offset="0.2589" style="stop-color:#D9F0EC"/>
			<stop  offset="0.3496" style="stop-color:#EAF7F4"/>
			<stop  offset="0.4603" style="stop-color:#F6FBFB"/>
			<stop  offset="0.6124" style="stop-color:#FDFEFE"/>
			<stop  offset="1" style="stop-color:#FFFFFF"/>
		</linearGradient>
		<polygon class="st2" points="1210,-6.7 1210,806.7 -10,806.7 -10,-6.7 		"/>
	</g>
	<g class="st3">
		
			<image style="overflow:visible;opacity:0.15;" width="890" height="1308" xlink:href="BC2D34E0.png"  transform="matrix(0.24 0 0 0.24 110.6 591.16)">
		</image>
		<g>
			<g>
				<g>
					<path class="st4" d="M123,822.6c-6.6-6.6-10.2-15.2-10.4-24.3c-0.1-9.1,3.3-17.7,9.7-24.1l24.3-24.3l4.9,4.9L127.2,779
						c-5.1,5.1-7.9,12-7.8,19.3c0.1,7.3,3.1,14.3,8.3,19.5c10.9,10.9,28.3,11.1,38.8,0.5l6.9-6.9c6.4-6.4,14.9-9.8,24.1-9.7
						c9.2,0.1,17.8,3.8,24.4,10.4c13.5,13.5,13.8,35.3,0.7,48.4L194.1,889l-4.9-4.9l28.4-28.4c10.6-10.6,10.3-28-0.5-38.8
						c-5.3-5.3-12.2-8.2-19.5-8.3c-7.3-0.1-14.2,2.7-19.3,7.8l-6.9,6.9C158.3,836.4,136.5,836.1,123,822.6z"/>
				</g>
				<path class="st5" d="M303.7,676l-79.5,79.5c-21.1,21.1-55.7,20.6-77.3-1.1c-21.6-21.6-22.1-56.2-1.1-77.3l79.5-79.5
					c5.9-5.9,15.5-5.7,21.6,0.3l56.5,56.5C309.4,660.5,309.5,670.2,303.7,676z"/>
				<path class="st6" d="M303.7,676L267,712.7l-78.4-78.4l36.6-36.6c5.9-5.9,15.5-5.7,21.6,0.3l56.5,56.5
					C309.4,660.5,309.5,670.2,303.7,676z"/>
				<path class="st4" d="M303.4,654.5L246.9,598c-6-6-15.7-6.2-21.6-0.3l-79.5,79.5c-21,21-20.6,55.7,1.1,77.3l0,0
					c21.6,21.6,56.2,22.1,77.3,1.1l79.5-79.5C309.5,670.2,309.4,660.5,303.4,654.5z M219.3,750.7c-18.4,18.4-48.8,18-67.7-0.9
					c-18.9-18.9-19.3-49.3-0.9-67.7l79.5-79.5c3.3-3.3,8.6-3.2,12,0.2l56.5,56.5c3.3,3.3,3.4,8.7,0.2,12L219.3,750.7z"/>
				<g>
					<g>
						<g>
							<polygon id="XMLID_490_" class="st4" points="256.7,688.1 242.3,673.7 256.3,659.7 241.7,645 227.6,659.1 213.2,644.6 
								199,658.9 213.4,673.3 199.4,687.3 214,702 228,687.9 242.5,702.3 							"/>
						</g>
					</g>
				</g>
			</g>
		</g>
	</g>
	<g class="st3">
		
			<image style="overflow:visible;opacity:0.15;" width="880" height="803" xlink:href="BC2D34E1.png"  transform="matrix(0.24 0 0 0.24 71.96 258.52)">
		</image>
		<g>
			<g>
				<g>
					<g>
						<path class="st5" d="M263.7,331.8c-0.9,2.5-2.9,7.2-6.7,13.7c-1,1.7-2,3.4-3.2,5.3c-8.5,13.3-23.3,32.1-48.6,54.2l-34.7,30.1
							L135.9,405c-23.1-20.1-37.4-37.5-46.2-50.5c-1.3-1.9-2.4-3.6-3.4-5.3c-5.2-8.4-7.7-14.4-8.9-17.4c-10.2-27.3,3.7-57.7,31-67.9
							c23.3-8.7,48.8,0.1,62.1,19.8c13.3-19.7,38.9-28.5,62.1-19.8C260,274.1,273.9,304.5,263.7,331.8z"/>
					</g>
				</g>
				<path class="st4" d="M232.7,263.9c-6.1-2.3-12.3-3.3-18.4-3.3c-8.7,0-17.1,2.1-24.7,6.1c-7.5,4-14.1,9.8-19,17
					c-9.9-14.6-26.4-23.2-43.7-23.2c-6.1,0-12.3,1.1-18.4,3.3c-27.3,10.2-41.2,40.6-31,67.9c1.1,3,3.7,9,8.9,17.4h0
					c1,1.7,2.2,3.4,3.4,5.3h0c0,0,0,0,0,0c8.8,13,23.1,30.4,46.2,50.5l34.6,30.1l34.7-30.1c25.3-22,40.1-40.8,48.6-54.2
					c1.2-1.9,2.3-3.7,3.2-5.3c3.8-6.5,5.8-11.2,6.7-13.7C273.9,304.5,260,274.1,232.7,263.9z M201.7,401l-31.1,27.1L139.4,401
					c-18-15.6-32.5-31.3-43.2-46.5h78.3l9.2-35.3l12.4,77l15.2-62l7.3,36l7.6-19.4l21.4,0.1C239.5,362.7,225.4,380.4,201.7,401z
					 M258.7,329.9c-0.8,2.1-2.7,6.6-6.3,12.9c-0.6,0.9-1.1,1.8-1.6,2.7l-28.4-0.1l-2.3,6l-8.4-41.6l-14.6,59.5l-12.3-76.1
					l-14.5,55.9H92.5c-0.6-1-1.2-1.9-1.8-2.8c-5-8.1-7.4-13.8-8.4-16.4c-9.1-24.5,3.4-51.9,27.9-61c5.4-2,10.9-3,16.6-3
					c15.8,0,30.5,7.8,39.3,20.8l4.4,6.5l4.4-6.5c8.8-13,23.5-20.8,39.3-20.8c5.6,0,11.2,1,16.6,3c11.9,4.4,21.3,13.2,26.6,24.7
					C262.7,305.2,263.2,318.1,258.7,329.9z"/>
			</g>
		</g>
	</g>
	<g class="st3">
		
			<image style="overflow:visible;opacity:0.15;" width="935" height="934" xlink:href="BC2D34E7.png"  transform="matrix(0.24 0 0 0.24 -83.8 96.76)">
		</image>
		<g>
			<g>
				<path class="st6" d="M83.7,165.1l-25.6-25.6c-4.5-4.5-11.9-4.5-16.4,0l-92.1,92.1c-4.5,4.5-4.5,11.9,0,16.4l25.6,25.6
					c4.5,4.5,11.9,4.5,16.4,0l92.1-92.1C88.3,177,88.3,169.7,83.7,165.1z"/>
				
					<rect x="92.2" y="94.8" transform="matrix(0.7071 -0.7071 0.7071 0.7071 -59.0783 106.2902)" class="st6" width="13.1" height="59.4"/>
				<polygon class="st5" points="82.3,163.7 84.4,154.2 101.8,136.8 86.4,121.4 69,138.8 59.5,140.9 				"/>
				<path class="st5" d="M37.7,227.6l-46.1,46.1c-4.5,4.5-11.9,4.5-16.4,0L-50.4,248c-4.5-4.5-4.5-11.9,0-16.4l46.1-46.1L37.7,227.6
					z"/>
				<path class="st4" d="M83.7,165.1l-25.6-25.6c-2.3-2.3-5.2-3.4-8.2-3.4c-3,0-5.9,1.1-8.2,3.4l-92.1,92.1
					c-4.5,4.5-4.5,11.9,0,16.4l10.8,10.8l-41.3,41.3c-1.1,1.1-1.1,2.9,0,4c0.5,0.5,1.3,0.8,2,0.8c0.7,0,1.4-0.3,2-0.8l41.3-41.3
					l10.8,10.8c2.3,2.3,5.2,3.4,8.2,3.4c3,0,5.9-1.1,8.2-3.4l14.3-14.3l0,0l4-4l0,0l73.8-73.8C88.3,177,88.3,169.7,83.7,165.1z
					 M79.8,177.5l-4.9,4.9l-17-17l-4,4l17,17l-6.3,6.3l-6.5-6.5l-4,4l6.5,6.5l-5.3,5.3l-17-17l-4,4l17,17l-6.3,6.3l-6.5-6.5l-4,4
					l6.5,6.5l-5.4,5.4l-17-17l-4,4l17,17l-6.3,6.3l-6.5-6.5l-4,4l6.5,6.5l-6.3,6.3l-17-17l-4,4l17,17l-5.4,5.4l-6.5-6.5l-4,4
					l6.5,6.5l-5.4,5.4l-17-17l-4,4l17,17l-4.9,4.9c-1.1,1.1-2.6,1.8-4.2,1.8c-1.6,0-3.1-0.6-4.2-1.8L-46.4,244
					c-2.3-2.3-2.3-6.1,0-8.5l92.1-92.1c1.1-1.1,2.6-1.8,4.2-1.8s3.1,0.6,4.2,1.8l25.6,25.6c1.1,1.1,1.8,2.6,1.8,4.2
					C81.5,174.9,80.9,176.4,79.8,177.5z"/>
			</g>
		</g>
	</g>
	<g class="st3">
		
			<image style="overflow:visible;opacity:0.15;" width="934" height="935" xlink:href="BC2D34E2.png"  transform="matrix(0.24 0 0 0.24 215.96 701.8)">
		</image>
		<g>
			<g>
				<path class="st6" d="M383.4,770.3l-25.6-25.6c-4.5-4.5-11.9-4.5-16.4,0l-92.1,92.1c-4.5,4.5-4.5,11.9,0,16.4l25.6,25.6
					c4.5,4.5,11.9,4.5,16.4,0l92.1-92.1C387.9,782.1,387.9,774.8,383.4,770.3z"/>
				
					<rect x="391.8" y="699.9" transform="matrix(0.7071 -0.7071 0.7071 0.7071 -399.2198 495.4048)" class="st6" width="13.1" height="59.4"/>
				<polygon class="st5" points="382,768.9 384.1,759.4 401.5,742 386.1,726.5 368.6,744 359.1,746 				"/>
				<path class="st5" d="M337.3,832.7l-46.1,46.1c-4.5,4.5-11.9,4.5-16.4,0l-25.6-25.6c-4.5-4.5-4.5-11.9,0-16.4l46.1-46.1
					L337.3,832.7z"/>
				<path class="st4" d="M383.4,770.3l-25.6-25.6c-2.3-2.3-5.2-3.4-8.2-3.4c-3,0-5.9,1.1-8.2,3.4l-92.1,92.1
					c-4.5,4.5-4.5,11.9,0,16.4l10.8,10.8l-41.3,41.3c-1.1,1.1-1.1,2.9,0,4c0.5,0.5,1.3,0.8,2,0.8s1.4-0.3,2-0.8l41.3-41.3l10.8,10.8
					c2.3,2.3,5.2,3.4,8.2,3.4c3,0,5.9-1.1,8.2-3.4l14.3-14.3l0,0l4-4l0,0l73.8-73.8C387.9,782.1,387.9,774.8,383.4,770.3z
					 M379.4,782.7l-4.9,4.9l-17-17l-4,4l17,17l-6.3,6.3l-6.5-6.5l-4,4l6.5,6.5l-5.3,5.3l-17-17l-4,4l17,17l-6.3,6.3l-6.5-6.5l-4,4
					l6.5,6.5l-5.4,5.4l-17-17l-4,4l17,17l-6.3,6.3l-6.5-6.5l-4,4l6.5,6.5l-6.3,6.3l-17-17l-4,4l17,17l-5.4,5.4L299,850l-4,4l6.5,6.5
					l-5.4,5.4l-17-17l-4,4l17,17l-4.9,4.9c-1.1,1.1-2.6,1.8-4.2,1.8c-1.6,0-3.1-0.6-4.2-1.8l-25.6-25.6c-2.3-2.3-2.3-6.1,0-8.5
					l92.1-92.1c1.1-1.1,2.6-1.8,4.2-1.8c1.6,0,3.1,0.6,4.2,1.8l25.6,25.6c1.1,1.1,1.8,2.6,1.8,4.2
					C381.1,780.1,380.5,781.6,379.4,782.7z"/>
			</g>
		</g>
	</g>
	<g class="st3">
		
			<image style="overflow:visible;opacity:0.15;" width="935" height="935" xlink:href="BC2D34E3.png"  transform="matrix(0.24 0 0 0.24 -98.2 619.72)">
		</image>
		<g>
			<g>
				<path class="st6" d="M-55.3,761.6l25.6,25.6c4.5,4.5,11.9,4.5,16.4,0l92.1-92.1c4.5-4.5,4.5-11.9,0-16.4l-25.6-25.6
					c-4.5-4.5-11.9-4.5-16.4,0l-92.1,92.1C-59.8,749.7-59.8,757.1-55.3,761.6z"/>
				
					<rect x="-76.9" y="772.5" transform="matrix(0.7071 -0.7071 0.7071 0.7071 -587.8711 185.2429)" class="st6" width="13.1" height="59.4"/>
				<polygon class="st5" points="-53.9,763 -56,772.5 -73.4,789.9 -58,805.3 -40.6,787.9 -31.1,785.8 				"/>
				<path class="st5" d="M-9.3,699.2l46.1-46.1c4.5-4.5,11.9-4.5,16.4,0l25.6,25.6c4.5,4.5,4.5,11.9,0,16.4l-46.1,46.1L-9.3,699.2z"
					/>
				<path class="st4" d="M-55.3,761.6l25.6,25.6c2.3,2.3,5.2,3.4,8.2,3.4c3,0,5.9-1.1,8.2-3.4l92.1-92.1c4.5-4.5,4.5-11.9,0-16.4
					L68,667.9l41.3-41.3c1.1-1.1,1.1-2.9,0-4c-0.5-0.5-1.3-0.8-2-0.8c-0.7,0-1.4,0.3-2,0.8L64,663.9l-10.8-10.8
					c-2.3-2.3-5.2-3.4-8.2-3.4s-5.9,1.1-8.2,3.4l-14.3,14.3l0,0l-4,4l0,0l-73.8,73.8C-59.8,749.7-59.8,757.1-55.3,761.6z
					 M-51.3,749.2l4.9-4.9l17,17l4-4l-17-17l6.3-6.3l6.5,6.5l4-4l-6.5-6.5l5.3-5.3l17,17l4-4l-17-17l6.3-6.3l6.5,6.5l4-4l-6.5-6.5
					l5.4-5.4l17,17l4-4l-17-17l6.3-6.3l6.5,6.5l4-4l-6.5-6.5l6.3-6.3l17,17l4-4l-17-17l5.4-5.4l6.5,6.5l4-4l-6.5-6.5l5.4-5.4l17,17
					l4-4l-17-17l4.9-4.9c1.1-1.1,2.6-1.8,4.2-1.8s3.1,0.6,4.2,1.8l25.6,25.6c2.3,2.3,2.3,6.1,0,8.5l-92.1,92.1
					c-1.1,1.1-2.6,1.8-4.2,1.8c-1.6,0-3.1-0.6-4.2-1.8l-25.6-25.6c-1.1-1.1-1.8-2.6-1.8-4.2C-53.1,751.8-52.5,750.3-51.3,749.2z"/>
			</g>
		</g>
	</g>
	<g class="st3">
		
			<image style="overflow:visible;opacity:0.15;" width="1075" height="1512" xlink:href="BC2D34EE.png"  transform="matrix(0.24 0 0 0.24 66.2 -106.52)">
		</image>
		<g>
			<g>
				<path class="st5" d="M140.1,50c30.1,15.5,68.6,29.3,90.3,7.6c21.8-21.8,7.9-60.2-7.6-90.3l-7.4,13.6c0,0,13.4,28.3-10,51.7
					c-23.4,23.4-51.7,10-51.7,10L140.1,50z"/>
				<g>
					<path class="st4" d="M232.8,60c31.1-31.1-4.3-91.1-21.3-119.9c-9-15.3-27.5-41.4-49.6-44.2c-9.9-1.3-19.3,2.4-27.8,10.9
						c0,0,0,0,0,0l4.8,4.8l0,0c7-7,14.3-10,22.1-9c19.9,2.5,37.8,29.5,44.6,41c14.9,25.2,49.7,84.3,22.4,111.7
						c-27.4,27.4-86.5-7.5-111.7-22.4c-11.5-6.8-38.4-24.7-41-44.6c-1-7.9,1.9-15.1,9-22.1l-4.8-4.8C71-30.2,67.4-20.8,68.6-10.9
						c1.2,9.5,8.5,28.5,44.2,49.6C141.7,55.7,201.7,91.1,232.8,60z"/>
				</g>
				<path class="st5" d="M129.5-97.9l-17,17c-3.9,3.9-3.9,10.2,0,14.1l0,0c3.9,3.9,10.2,3.9,14.1,0l17-17L129.5-97.9z"/>
				<path class="st5" d="M74.9-43.3l17-17c3.9-3.9,10.2-3.9,14.1,0l0,0c3.9,3.9,3.9,10.2,0,14.1l-17,17L74.9-43.3z"/>
				<g>
					<path class="st4" d="M298.2,168c6.3-6.3,9.8-14.7,9.8-23.7c0-8.9-3.5-17.4-9.8-23.7l-65.4-65.4L228,60l65.4,65.4
						c5.1,5.1,7.8,11.8,7.8,18.9s-2.8,13.8-7.8,18.9c-10.4,10.4-27.4,10.4-37.8,0l-48.1-48.1c-6.3-6.3-14.7-9.8-23.7-9.8
						c-9,0-17.4,3.5-23.7,9.8c-13.1,13.1-13.1,34.3,0,47.4l57.7,57.7l4.8-4.8l-57.7-57.7c-10.4-10.4-10.4-27.4,0-37.8
						c5-5,11.8-7.8,18.9-7.8c7.1,0,13.8,2.8,18.9,7.8l48.1,48.1C263.9,181.1,285.1,181.1,298.2,168z"/>
				</g>
				<circle class="st5" cx="220.2" cy="217.8" r="22.3"/>
				<circle class="st6" cx="220.2" cy="217.8" r="11.2"/>
			</g>
		</g>
	</g>
	<g class="st3">
		
			<image style="overflow:visible;opacity:0.15;" width="794" height="721" xlink:href="BC2D34EF.png"  transform="matrix(0.24 0 0 0.24 -40.84 425.08)">
		</image>
		<g>
			<g>
				<g>
					<path class="st5" d="M106.2,485.1l-43.5,43.5l-48-48l43.5-43.5c13.2-13.2,34.7-13.2,48,0C119.4,450.3,119.4,471.8,106.2,485.1z
						"/>
					<path class="st6" d="M62.7,528.5L19.3,572c-13.3,13.3-34.7,13.3-48,0c-6.6-6.6-9.9-15.3-9.9-24c0-8.7,3.3-17.4,9.9-24
						l43.4-43.4L62.7,528.5z"/>
					<path class="st4" d="M14.7,480.5L-28.7,524c-6.6,6.6-9.9,15.3-9.9,24c0,8.7,3.3,17.4,9.9,24c6.6,6.6,15.3,9.9,24,9.9
						s17.4-3.3,24-9.9l43.4-43.4L14.7,480.5z M15.8,568.5C10.3,574,3,577-4.7,577c-7.8,0-15.1-3-20.5-8.5
						c-5.5-5.5-8.5-12.8-8.5-20.5c0-7.8,3-15.1,8.5-20.5l40-40l41.1,41.1L15.8,568.5z"/>
				</g>
				<g>
					<path class="st6" d="M119.8,576.7c-12,8-28.4,6.7-39-3.9c-10.6-10.6-11.9-27-3.9-39L119.8,576.7z"/>
					<path class="st6" d="M128.4,568.1l-42.9-42.9c12-8,28.4-6.7,39,3.9C135.2,539.7,136.5,556.1,128.4,568.1z"/>
					<path class="st5" d="M128.4,568.1c0,0.1-0.1,0.1-0.1,0.2c-1.1,1.6-2.3,3.1-3.8,4.6c-1.4,1.4-3,2.7-4.6,3.8
						c-0.1,0-0.1,0.1-0.2,0.1l-42.9-42.9c0-0.1,0.1-0.1,0.1-0.2c1.1-1.6,2.3-3.1,3.8-4.6c1.4-1.4,3-2.7,4.6-3.8
						c0.1,0,0.1-0.1,0.2-0.1L128.4,568.1z"/>
					<g>
						<polygon class="st4" points="102.7,520 102.7,520 102.7,520 						"/>
						<path class="st4" d="M124.6,529.1c-6-6-14-9.1-21.9-9.1v4.9c7,0,13.5,2.7,18.4,7.6c8.8,8.8,10.2,22.7,3.2,33
							c-0.9,1.4-2,2.7-3.2,3.8c-1.2,1.2-2.5,2.2-3.9,3.2c-4.3,2.9-9.3,4.5-14.6,4.5c-7,0-13.5-2.7-18.4-7.6
							c-8.8-8.8-10.2-22.7-3.2-33c0.9-1.4,2-2.7,3.2-3.8c1.2-1.2,2.5-2.2,3.9-3.2c4.3-2.9,9.3-4.5,14.6-4.5l0-4.9c0,0,0,0,0,0
							c-6,0-12.1,1.8-17.3,5.3c-1.6,1.1-3.1,2.3-4.6,3.8c-1.4,1.4-2.7,3-3.8,4.6c-8.1,12-6.9,28.5,3.8,39.2c6,6,14,9.1,21.9,9.1
							c6,0,12.1-1.8,17.3-5.3c1.6-1.1,3.1-2.3,4.6-3.8c1.4-1.4,2.7-3,3.8-4.6C136.5,556.2,135.2,539.7,124.6,529.1z"/>
					</g>
				</g>
			</g>
		</g>
	</g>
</g>
</svg>
