<svg xmlns="http://www.w3.org/2000/svg" width="772" height="739" viewBox="0 0 772 739" version="1.1"><path d="M 339 51.056 C 214.259 62.042, 108.252 143.613, 65.522 261.494 C 52.288 298.002, 46.641 330.903, 46.641 371.500 C 46.641 398.320, 47.881 411.590, 52.572 435 C 75.214 547.969, 156.335 640.449, 264.260 676.330 C 333.830 699.460, 406.414 698.087, 476 672.327 C 487.300 668.143, 511.304 656.748, 522.500 650.251 C 576.742 618.778, 620.968 571.491, 648.528 515.500 C 664.015 484.036, 672.513 458.001, 678.394 424 C 683.955 391.849, 683.955 351.151, 678.394 319 C 672.513 284.999, 664.015 258.964, 648.528 227.500 C 605.245 139.565, 523.125 76.160, 427.546 56.876 C 419.271 55.206, 407.550 53.195, 401.500 52.407 C 387.604 50.596, 352.773 49.843, 339 51.056 M 197.675 206.056 C 148.572 211.763, 116.072 237.265, 107.837 276.549 C 104.969 290.230, 104.947 312.505, 107.788 326.145 C 112.444 348.496, 124.801 364.539, 145.566 375.190 C 160.518 382.860, 173.637 386.417, 213 393.475 C 253.926 400.814, 271.186 409.164, 278.595 425.209 C 281.302 431.071, 281.497 432.318, 281.458 443.500 C 281.402 459.690, 279.467 464.751, 269.595 474.524 C 259.011 485.003, 245.958 490.527, 226.026 492.964 C 189.465 497.434, 152.097 487.750, 125.271 466.852 C 121.846 464.183, 118.864 462, 118.645 462 C 118.155 462, 90.589 495.798, 90.272 496.788 C 89.974 497.720, 104.778 508.683, 112.696 513.393 C 127.413 522.149, 146.298 529.468, 163.241 532.984 C 178.352 536.120, 189.318 537.105, 209.012 537.098 C 235.345 537.087, 253.915 534.094, 271.698 526.993 C 300.654 515.430, 319.311 494.463, 325.534 466.493 C 326.657 461.444, 327.574 459.226, 328.350 459.682 C 332.972 462.400, 335.991 465.409, 335.046 466.354 C 333.434 467.966, 333.845 474.062, 335.865 478.509 C 337.946 483.090, 343.833 488.669, 347.578 489.609 C 355.398 491.572, 365.898 486.931, 371.604 478.989 L 375.097 474.126 378.799 476.638 C 380.834 478.020, 383.738 479.397, 385.250 479.700 L 388 480.250 388 507.125 L 388 534 411 534 L 434 534 434 510.428 L 434 486.856 436.613 482.397 C 438.826 478.620, 439.554 478.056, 441.363 478.713 C 444.107 479.709, 450.718 479.719, 454.250 478.731 C 456.838 478.007, 457.004 478.155, 457.076 481.231 C 457.450 497.289, 476.718 506.187, 489.777 496.331 C 491.914 494.718, 494.789 490.398, 498.045 483.910 C 504.876 470.297, 510.750 461.379, 517.842 453.856 L 523.832 447.500 526.666 450.191 C 535.820 458.883, 549.527 459.165, 558.552 450.845 C 574.491 436.153, 564.677 408.718, 543.500 408.769 C 530.359 408.800, 520 419.363, 520 432.730 C 520 436.276, 519.541 437.046, 515.935 439.545 C 506.726 445.927, 496.955 458.831, 488.975 475.149 C 486.227 480.768, 483.239 486.184, 482.334 487.183 C 480.062 489.694, 473.855 489.603, 471.522 487.024 C 468.777 483.991, 469.853 472.184, 473.506 465.264 C 477.285 458.105, 477.348 453.414, 473.704 450.657 C 471.141 448.717, 470.689 448.664, 468.275 450.021 C 466.557 450.985, 464.747 453.674, 463.070 457.750 C 460.852 463.145, 459.920 464.274, 456.261 466 C 451.004 468.480, 445.462 468.645, 444.580 466.348 C 444.232 465.440, 444.654 462.261, 445.520 459.283 C 447.406 452.797, 446.880 450.607, 443.057 449.024 C 439.846 447.694, 436.844 448.723, 435.073 451.762 C 434.373 452.965, 434.051 444.643, 434.030 424.750 L 434 396 503.500 396 L 573 396 573 465 L 573 534 596 534 L 619 534 619 371 L 619 208 596.007 208 L 573.013 208 572.757 279.750 L 572.500 351.500 503.250 351.757 L 434 352.014 434 280.007 L 434 208 411 208 L 388 208 388 267.117 L 388 326.233 385.750 325.527 C 384.512 325.139, 381.047 324.438, 378.049 323.970 C 374.519 323.418, 372.052 322.413, 371.049 321.120 C 367.493 316.532, 360.118 317.930, 357.962 323.600 C 356.562 327.282, 358.986 332.337, 362.935 333.973 C 365.800 335.160, 366.404 335.077, 369.017 333.145 C 372.532 330.547, 378.310 330.340, 383.980 332.609 L 388 334.217 388 372.174 C 388 396.427, 387.626 410.830, 386.965 412.066 C 386.395 413.130, 385.017 414, 383.902 414 C 382.669 414, 377.879 417.970, 371.687 424.124 C 361.218 434.528, 342.778 450, 340.848 450 C 340.251 450, 337.172 447.903, 334.006 445.340 L 328.249 440.680 327.566 432.090 C 326.572 419.602, 324.331 410.566, 319.980 401.500 C 312.718 386.371, 301.731 375.520, 285.877 367.822 L 276.977 363.500 277.370 359.212 C 278.310 348.951, 288.794 334.933, 297.533 332.251 C 300.830 331.239, 301.616 331.339, 303.787 333.047 C 306.780 335.402, 309.789 335.536, 312.770 333.449 C 316.231 331.024, 317.045 328.748, 315.915 324.654 C 314.248 318.615, 307.896 317.013, 303.409 321.500 C 302.034 322.875, 300.326 324, 299.614 324 C 298.902 324, 295.566 325.376, 292.201 327.058 C 282.199 332.055, 273.757 343.224, 271.125 354.940 C 270.604 357.258, 269.967 359.366, 269.710 359.624 C 269.452 359.881, 264.125 358.726, 257.871 357.058 C 251.617 355.390, 237.050 351.984, 225.500 349.490 C 184.399 340.613, 174.995 337.428, 163.858 328.608 C 145.778 314.291, 147.102 281.283, 166.439 264.262 C 183.514 249.233, 220.368 244.086, 249.812 252.618 C 263.792 256.670, 280.719 265.021, 291.873 273.370 L 295.247 275.895 308.123 258.018 C 315.206 248.186, 321 239.749, 321 239.271 C 321 237.921, 305.981 228.336, 295.518 223.009 C 278.661 214.427, 262.155 209.160, 243.872 206.529 C 232.670 204.917, 209.512 204.680, 197.675 206.056 M 536.500 416.417 C 527.397 420.481, 523.361 431.909, 527.894 440.790 C 535.623 455.935, 556.270 453.036, 560.051 436.276 C 560.982 432.148, 559.535 425.560, 556.877 421.827 C 552.656 415.899, 543.254 413.403, 536.500 416.417 M 377 439.370 C 368.174 447.970, 351.160 462.119, 346.457 464.769 C 345.466 465.327, 345.378 466.662, 346.082 470.424 C 348.874 485.332, 359.343 480.388, 368.022 460.063 C 372.538 449.488, 375.041 446.573, 379.092 447.173 C 380.306 447.353, 382.175 448.677, 383.245 450.116 C 385.067 452.566, 385.089 452.927, 383.595 455.816 C 382.718 457.513, 382.002 459.936, 382.005 461.200 C 382.010 463.662, 386.413 469.904, 387.432 468.895 C 387.768 468.562, 387.921 459.481, 387.772 448.714 L 387.500 429.138 377 439.370" stroke="none" fill="#ececea" fill-rule="evenodd"/><path d="M 362.603 319.834 C 362.264 320.381, 362.553 321.031, 363.244 321.278 C 363.935 321.524, 364.155 322.095, 363.733 322.546 C 363.312 322.998, 362.434 322.834, 361.783 322.183 C 361.132 321.533, 360.127 321.014, 359.550 321.030 C 358.973 321.047, 359.288 321.519, 360.250 322.080 C 362.643 323.474, 362.464 325.355, 360 324.710 C 358.454 324.306, 358.003 324.677, 358.015 326.344 C 358.032 328.654, 359.957 332.474, 359.985 330.250 C 359.993 329.563, 360.900 329, 362 329 C 363.100 329, 364 329.450, 364 330 C 364 330.550, 363.325 331, 362.500 331 C 360.697 331, 360.466 332.953, 362.250 333.111 C 370.650 333.855, 375.343 327.343, 370.150 322.150 C 367.695 319.695, 363.487 318.403, 362.603 319.834 M 304.573 321.570 C 300.880 325.263, 301.997 332.991, 306.345 333.828 C 309.166 334.371, 315.245 331.080, 314.587 329.365 C 314.270 328.541, 314.457 328.164, 315.011 328.507 C 315.564 328.849, 316 327.991, 316 326.559 C 316 325.152, 315.550 324, 315 324 C 314.450 324, 314 323.377, 314 322.617 C 314 319.941, 306.981 319.162, 304.573 321.570 M 292.205 416.469 C 291.852 417.036, 291.493 419.279, 291.406 421.454 C 291.283 424.542, 291.770 425.818, 293.634 427.284 C 294.946 428.316, 295.777 429.552, 295.482 430.030 C 294.655 431.368, 298.123 432.692, 301.813 432.447 C 304.368 432.278, 304.998 432.564, 304.563 433.696 C 304.253 434.503, 304 435.422, 304 435.737 C 304 436.052, 303.097 435.493, 301.994 434.494 C 299.081 431.858, 298.590 433.212, 301.311 436.378 C 302.844 438.163, 304.198 438.861, 305.302 438.438 C 306.463 437.992, 307.271 438.513, 307.952 440.148 C 309.319 443.431, 311.500 446, 312.919 446 C 313.579 446, 313.859 446.419, 313.543 446.931 C 313.226 447.443, 313.494 448.187, 314.138 448.585 C 314.869 449.037, 315.041 448.876, 314.595 448.155 C 314.203 447.520, 314.314 447, 314.842 447 C 315.370 447, 316.759 448.620, 317.927 450.601 C 319.689 453.588, 320.303 453.993, 321.526 452.979 C 322.337 452.306, 323 450.884, 323 449.819 C 323 448.753, 323.450 448.160, 324 448.500 C 325.434 449.386, 325.238 450.619, 323.364 452.493 C 322.172 453.685, 322.028 454.428, 322.832 455.232 C 323.635 456.035, 324.108 455.882, 324.574 454.667 C 324.926 453.750, 325.841 453, 326.607 453 C 327.373 453, 328 452.534, 328 451.965 C 328 451.263, 328.644 451.274, 330 452 C 331.100 452.589, 332 453.560, 332 454.158 C 332 454.893, 331.536 454.860, 330.567 454.056 C 329.430 453.112, 328.729 453.271, 327.175 454.825 C 325.230 456.770, 325.237 456.799, 328.227 459.009 C 330.458 460.659, 331.433 460.918, 331.993 460.011 C 332.533 459.138, 332.946 459.104, 333.434 459.893 C 333.810 460.502, 333.585 461, 332.933 461 C 332.282 461, 333.043 462.238, 334.624 463.750 C 337.853 466.838, 341.580 467.198, 345.188 464.772 L 347.500 463.217 344.781 461.962 C 343.286 461.272, 342.321 460.290, 342.637 459.779 C 342.953 459.268, 344.265 459.840, 345.553 461.050 L 347.896 463.251 351.980 460.016 C 355 457.624, 355.909 456.287, 355.465 454.890 C 355.135 453.851, 355.314 453, 355.863 453 C 356.412 453, 357.038 451.988, 357.255 450.750 C 357.615 448.690, 357.717 448.656, 358.470 450.351 C 359.001 451.548, 358.843 452.479, 358.024 452.985 C 357.327 453.416, 356.931 454.294, 357.145 454.936 C 357.362 455.586, 359.641 454.085, 362.285 451.552 C 364.897 449.048, 367.348 447, 367.730 447 C 369.506 447, 376.799 438.617, 376.325 437.121 C 375.899 435.776, 375.985 435.745, 376.829 436.936 C 377.673 438.125, 378.118 438.147, 379.424 437.063 C 380.291 436.344, 381 435.305, 381 434.755 C 381 434.205, 380.252 434.373, 379.337 435.128 C 377.911 436.305, 377.749 436.287, 378.198 435 C 378.485 434.175, 379.683 433.607, 380.860 433.738 C 382.037 433.869, 383 433.601, 383 433.142 C 383 432.682, 384.462 430.753, 386.250 428.853 C 390.998 423.809, 392.269 421.317, 390.453 420.620 C 389.654 420.314, 389 420.525, 389 421.090 C 389 421.656, 388.530 421.828, 387.956 421.473 C 387.382 421.118, 386.257 421.372, 385.456 422.036 C 384.655 422.701, 384 422.933, 384 422.551 C 384 421.520, 386.712 419, 387.822 419 C 389.292 419, 390.062 416.156, 388.802 415.378 C 388.129 414.962, 387.972 415.146, 388.405 415.845 C 388.797 416.480, 388.668 417, 388.118 417 C 387.568 417, 386.840 416.550, 386.500 416 C 385.424 414.258, 382.209 414.914, 379.306 417.468 C 376.909 419.577, 376.775 419.941, 378.390 419.968 C 379.429 419.986, 380.818 419.263, 381.477 418.362 C 382.136 417.462, 383.166 416.899, 383.767 417.112 C 384.498 417.372, 384.384 418.146, 383.425 419.448 C 382.445 420.779, 380.882 421.365, 378.495 421.297 C 375.306 421.207, 373.892 422.214, 375.750 423.253 C 376.163 423.483, 375.981 423.552, 375.346 423.404 C 374.711 423.257, 371.786 425.362, 368.846 428.081 C 364.408 432.187, 363.755 433.205, 365 434.079 C 366.162 434.894, 365.970 434.981, 364.151 434.467 C 362.107 433.889, 361.889 434.075, 362.469 435.901 C 363.175 438.125, 362.085 438.685, 360.376 436.976 C 358.684 435.284, 355.602 439.389, 356.836 441.693 C 358.448 444.705, 355.486 448.952, 351.750 448.985 C 349.170 449.007, 349.622 447.312, 352.381 446.619 C 354.468 446.095, 356.644 442.311, 355.510 441.177 C 355.101 440.768, 351.964 443.003, 345.581 448.250 C 341.588 451.533, 337.467 451.893, 336.717 449.024 C 336.432 447.937, 334.917 446.478, 333.350 445.782 C 330.522 444.526, 323 437.290, 323 435.826 C 323 435.406, 322.325 435.322, 321.500 435.638 C 320.675 435.955, 320 435.686, 320 435.040 C 320 433.506, 315.787 434.771, 314.700 436.631 C 314.260 437.384, 313.360 437.987, 312.700 437.971 C 312.040 437.955, 312.949 436.623, 314.720 435.011 C 316.870 433.056, 317.554 431.843, 316.779 431.364 C 316.141 430.969, 315.463 431.110, 315.274 431.678 C 315.085 432.245, 313.826 432.498, 312.477 432.240 C 311.127 431.982, 310.213 431.464, 310.446 431.088 C 311.027 430.147, 309.882 428.712, 307.500 427.393 C 306.400 426.784, 305.345 425.434, 305.155 424.393 C 304.914 423.070, 306.192 423.841, 309.401 426.954 C 312.544 430.004, 314.316 431.084, 315.019 430.381 C 315.723 429.677, 315.355 428.745, 313.852 427.426 C 312.468 426.213, 311.962 426.055, 312.482 427 C 312.936 427.825, 312.396 427.600, 311.282 426.500 C 310.167 425.400, 309.418 424.214, 309.617 423.864 C 310.068 423.068, 306.067 421.737, 303.839 421.943 C 302.925 422.027, 301.886 421.624, 301.530 421.048 C 301.158 420.447, 301.760 420, 302.941 420 C 304.073 420, 305 419.550, 305 419 C 305 418.450, 304.298 418, 303.441 418 C 302.584 418, 302.160 417.550, 302.500 417 C 302.840 416.450, 302.304 415.922, 301.309 415.826 C 296.037 415.319, 292.778 415.549, 292.205 416.469" stroke="none" fill="#5bd2e6" fill-rule="evenodd"/><path d="M 373.500 326.890 C 373.500 329.369, 373.920 330, 375.572 330 C 384.135 330, 395.133 338.397, 400.238 348.832 C 403.430 355.358, 403.500 355.788, 403.500 369 C 403.500 382.175, 403.417 382.693, 400.053 390.500 C 398.157 394.900, 394.296 401.893, 391.473 406.039 L 386.340 413.578 388.608 415.289 C 389.856 416.230, 391.064 417, 391.293 417 C 391.523 417, 393.519 414.413, 395.729 411.250 C 400.951 403.778, 406.377 392.906, 408.610 385.440 C 410.830 378.020, 411.086 361.579, 409.092 354.500 C 404.426 337.937, 392.291 326.006, 378.439 324.366 L 373.500 323.781 373.500 326.890 M 292.218 327.121 C 282.962 331.703, 275.123 341.982, 271.830 353.856 C 269.578 361.980, 269.432 375.330, 271.506 383.540 C 273.373 390.930, 280.549 405.599, 286.048 413.268 L 290.184 419.036 292.197 416.477 L 294.210 413.917 289.731 407.209 C 279.391 391.726, 276.486 383.173, 276.580 368.500 C 276.638 359.586, 277.077 356.409, 278.898 351.748 C 282.203 343.289, 287.681 336.911, 294.624 333.438 C 297.856 331.822, 300.573 330.500, 300.662 330.500 C 300.751 330.500, 300.586 329.262, 300.295 327.750 C 299.654 324.411, 297.960 324.279, 292.218 327.121 M 533.222 411.536 C 524.973 415.710, 520 423.994, 520 433.558 C 520 436.769, 519.555 438.015, 518.250 438.454 C 515.376 439.420, 506.647 448.028, 501.088 455.379 C 498.226 459.162, 492.993 468.030, 489.457 475.086 C 485.921 482.142, 482.152 488.384, 481.080 488.957 C 478.104 490.550, 474.476 490.206, 471.861 488.084 C 469.774 486.390, 469.508 485.361, 469.573 479.222 C 469.630 473.800, 470.210 471.198, 472.216 467.361 C 473.630 464.658, 475.355 460.547, 476.051 458.226 C 477.176 454.470, 477.115 453.785, 475.502 452.003 C 474.366 450.747, 472.422 450, 470.288 450 C 467.032 450, 466.743 450.314, 463.544 457.333 C 460.430 464.168, 459.860 464.814, 455.166 466.833 C 445.354 471.054, 442.846 469.221, 445.165 459.528 C 446.148 455.419, 446.358 452.605, 445.761 451.537 C 444.608 449.477, 440.524 447.862, 438.466 448.651 C 436.499 449.406, 433.452 455.439, 432.735 460 C 429.705 479.264, 413.156 494.937, 407.465 483.932 C 405.385 479.910, 405.588 472.796, 407.867 469.885 C 410.697 466.268, 416 455.315, 416 453.085 C 416 450.865, 412.482 448, 409.755 448 C 405.468 448, 397.425 458.214, 394.621 467.220 C 394.327 468.166, 392.938 469.228, 391.536 469.580 C 388.208 470.415, 384.404 467.915, 382.305 463.513 C 380.812 460.382, 380.815 459.931, 382.344 457.597 C 385.647 452.557, 383.752 447.750, 378.464 447.750 C 374.757 447.750, 372.770 450.059, 369.006 458.736 C 364.138 469.956, 359.504 476.885, 355.833 478.428 C 350.215 480.790, 347.385 478.863, 346.187 471.857 C 345.469 467.659, 345.323 467.512, 342.171 467.831 C 340.371 468.013, 338.213 467.591, 337.373 466.895 C 333.576 463.743, 333.135 472.769, 336.745 479.757 C 339.190 484.492, 345.491 488.988, 350.650 489.680 C 357.854 490.646, 369.103 483.786, 373.656 475.650 C 374.551 474.050, 375.090 474.154, 380.416 476.956 C 383.960 478.820, 387.697 480, 390.056 480 C 393.692 480, 393.948 480.204, 394.588 483.617 C 395.340 487.623, 399.885 493.386, 403.898 495.421 C 408.427 497.717, 415.098 498.164, 420.568 496.537 C 426.529 494.765, 431.868 489.890, 436.202 482.262 C 438.893 477.525, 439.377 477.131, 441.267 478.143 C 442.567 478.839, 446.126 479.052, 450.679 478.708 L 458 478.154 458 482.627 C 458 489.892, 461.902 495.390, 469.232 498.452 C 477.164 501.767, 488.633 499.194, 492.640 493.201 C 493.634 491.715, 496.764 485.947, 499.596 480.382 C 506.088 467.628, 511.538 459.586, 518.580 452.374 L 524.114 446.706 527.807 450.310 C 539.612 461.832, 558.503 457.342, 564.521 441.583 C 567.161 434.671, 566.254 425.246, 562.426 419.799 C 555.133 409.422, 543.758 406.204, 533.222 411.536 M 538.243 414.850 C 531.720 416.729, 525.069 425.750, 525.022 432.782 C 524.995 436.828, 527.365 442.691, 530.298 445.831 C 537.959 454.036, 551.469 452.826, 557.960 443.353 C 562.785 436.312, 561.502 424.379, 555.320 418.788 C 550.984 414.868, 543.873 413.228, 538.243 414.850" stroke="none" fill="#25627f" fill-rule="evenodd"/><path d="M 618.488 371.500 C 618.488 461.150, 618.606 497.677, 618.750 452.671 C 618.894 407.665, 618.894 334.315, 618.750 289.671 C 618.606 245.027, 618.488 281.850, 618.488 371.500" stroke="none" fill="#119580" fill-rule="evenodd"/><path d="M 399.250 208.747 C 405.712 208.921, 416.288 208.921, 422.750 208.747 C 429.212 208.573, 423.925 208.430, 411 208.430 C 398.075 208.430, 392.788 208.573, 399.250 208.747 M 584.250 208.747 C 590.712 208.921, 601.288 208.921, 607.750 208.747 C 614.212 208.573, 608.925 208.430, 596 208.430 C 583.075 208.430, 577.788 208.573, 584.250 208.747 M 361.660 319.241 C 359.976 320.489, 359.957 320.719, 361.434 321.945 C 362.322 322.682, 363.362 322.971, 363.745 322.588 C 364.128 322.205, 363.845 321.522, 363.114 321.071 C 361.190 319.881, 363.487 318.702, 366.108 319.534 C 368.286 320.226, 371.479 323.007, 372.125 324.776 C 372.349 325.390, 373.018 325.240, 373.789 324.401 C 374.847 323.252, 374.824 323, 373.661 323 C 372.882 323, 371.627 322.101, 370.872 321.003 C 369.095 318.417, 364.068 317.455, 361.660 319.241 M 303.455 321.455 C 301.814 323.095, 301 325.033, 301 327.300 C 301 331.343, 303.761 334.425, 306.023 332.908 C 307.223 332.102, 307.134 331.971, 305.548 332.208 C 300.925 332.899, 301.468 321.938, 306.130 320.459 C 308.935 319.568, 314 320.933, 314 322.579 C 314 323.361, 314.466 324, 315.035 324 C 316.563 324, 314.421 320.376, 312.446 319.618 C 309.204 318.374, 305.850 319.059, 303.455 321.455 M 468.823 395.750 C 488.251 395.902, 519.751 395.901, 538.823 395.749 C 557.895 395.598, 542 395.473, 503.500 395.473 C 465 395.474, 449.395 395.598, 468.823 395.750 M 379.306 416.598 L 376.500 419.195 379.385 417.098 C 382.695 414.691, 384.765 414.505, 387.250 416.392 C 389.230 417.895, 389.517 419, 387.929 419 C 386.735 419, 384 421.472, 384 422.551 C 384 422.933, 384.655 422.701, 385.456 422.036 C 386.257 421.372, 387.382 421.118, 387.956 421.473 C 388.530 421.828, 389 421.656, 389 421.090 C 389 420.525, 389.675 420.322, 390.500 420.638 C 392.790 421.517, 392.295 419.917, 389.313 416.805 C 385.964 413.309, 382.926 413.246, 379.306 416.598 M 381.300 418.413 C 380.860 419.191, 379.150 419.978, 377.500 420.163 C 374.521 420.498, 373.224 423.075, 375.775 423.592 C 376.476 423.734, 376.589 423.621, 376.025 423.342 C 374.148 422.411, 374.968 420.922, 377.250 421.118 C 381.216 421.459, 382.491 421.044, 383.768 419 C 384.803 417.343, 384.767 417, 383.558 417 C 382.756 417, 381.740 417.636, 381.300 418.413 M 305.155 424.393 C 305.345 425.434, 306.400 426.784, 307.500 427.393 C 309.882 428.712, 311.027 430.147, 310.446 431.088 C 310.213 431.464, 311.127 431.982, 312.477 432.240 C 313.826 432.498, 315.085 432.245, 315.274 431.678 C 315.463 431.110, 316.141 430.969, 316.779 431.364 C 317.554 431.843, 316.870 433.056, 314.720 435.011 C 312.949 436.623, 312.040 437.955, 312.700 437.971 C 313.360 437.987, 314.260 437.384, 314.700 436.631 C 315.733 434.863, 320 433.495, 320 434.933 C 320 435.520, 320.534 436, 321.187 436 C 321.840 436, 321.070 434.638, 319.475 432.974 C 317.788 431.213, 315.965 430.183, 315.113 430.510 C 314.232 430.848, 311.889 429.365, 309.230 426.786 C 306.104 423.755, 304.911 423.054, 305.155 424.393 M 376.299 437 C 376.547 437.825, 375.610 439.725, 374.215 441.222 C 371.855 443.755, 371.583 443.825, 370.285 442.222 C 369.023 440.665, 368.987 440.703, 369.910 442.619 C 371.191 445.280, 370.234 446.377, 368.310 444.452 C 366.597 442.740, 363 442.512, 363 444.117 C 363 444.734, 363.878 445.004, 364.963 444.720 C 366.043 444.437, 367.448 444.835, 368.086 445.603 C 368.905 446.590, 368.921 447, 368.140 447 C 367.532 447, 364.897 449.048, 362.285 451.552 C 359.641 454.085, 357.362 455.586, 357.145 454.936 C 356.931 454.294, 357.327 453.416, 358.024 452.985 C 358.843 452.479, 359.001 451.548, 358.470 450.351 C 357.717 448.656, 357.615 448.690, 357.255 450.750 C 357.038 451.988, 356.412 453, 355.863 453 C 355.314 453, 355.139 453.862, 355.473 454.916 C 355.808 455.970, 355.613 457.121, 355.041 457.475 C 354.468 457.829, 354 457.641, 354 457.059 C 354 456.477, 353.325 456, 352.500 456 C 351.675 456, 351 455.235, 351 454.300 C 351 452.946, 350.747 452.853, 349.758 453.842 C 348.770 454.830, 348.820 455.282, 350.008 456.061 C 351.290 456.901, 351.219 457.262, 349.500 458.634 C 348.105 459.747, 347.880 460.372, 348.756 460.700 C 349.447 460.959, 349.698 461.695, 349.314 462.335 C 348.904 463.020, 349.289 462.955, 350.249 462.177 C 351.146 461.449, 351.635 460.212, 351.334 459.427 C 350.994 458.543, 351.420 458, 352.452 458 C 353.508 458, 353.842 458.447, 353.365 459.219 C 352.181 461.133, 364.610 451.138, 371.666 444.500 C 376.807 439.664, 377.831 438.209, 376.946 437 C 375.970 435.667, 375.898 435.667, 376.299 437 M 352.500 441.633 C 349.750 444.139, 348.175 445.854, 349 445.446 C 349.825 445.037, 351.511 443.793, 352.746 442.681 C 355.353 440.334, 356.157 440.683, 355.341 443.805 C 355.020 445.030, 353.696 446.289, 352.381 446.619 C 349.622 447.312, 349.170 449.007, 351.750 448.985 C 355.483 448.952, 358.491 444.628, 356.836 441.672 C 356.147 440.440, 356.211 439.451, 357.043 438.448 C 359.177 435.877, 357.616 436.972, 352.500 441.633 M 305 438.554 C 305 438.859, 306.425 440.547, 308.167 442.304 C 309.909 444.062, 310.731 444.684, 309.993 443.687 C 308.770 442.035, 308.876 441.931, 311.190 442.512 C 312.999 442.966, 313.903 442.696, 314.333 441.574 C 314.665 440.708, 315.626 440, 316.469 440 C 317.311 440, 318 439.550, 318 439 C 318 438.450, 317.325 438, 316.500 438 C 315.675 438, 315 438.437, 315 438.971 C 315 439.506, 313.538 440.328, 311.750 440.799 C 309.049 441.511, 308.379 441.347, 307.782 439.828 C 307.134 438.178, 305 437.200, 305 438.554 M 345.032 447.461 C 343.031 449.873, 340.022 450.330, 338.028 448.525 C 336.824 447.436, 335.973 447.234, 335.540 447.935 C 335.178 448.521, 334.432 449, 333.882 449 C 333.332 449, 333.203 448.480, 333.595 447.845 C 334.055 447.101, 333.868 446.964, 333.067 447.458 C 332.204 447.992, 332.144 448.544, 332.870 449.270 C 333.597 449.997, 334.385 449.925, 335.458 449.035 C 336.740 447.971, 337 448.030, 337 449.386 C 337 450.679, 337.940 450.981, 341.544 450.844 C 344.646 450.727, 345.940 450.287, 345.622 449.458 C 345.366 448.790, 345.661 447.739, 346.278 447.122 C 346.895 446.505, 347.140 446, 346.822 446 C 346.505 446, 345.699 446.658, 345.032 447.461 M 328 451.965 C 328 452.534, 327.373 453, 326.607 453 C 324.786 453, 323.643 456.043, 324.967 457.367 C 325.535 457.935, 326.052 459.322, 326.116 460.450 C 326.212 462.154, 326.310 462.203, 326.692 460.738 C 326.945 459.769, 327.637 459.276, 328.230 459.642 C 328.833 460.015, 329.023 459.846, 328.660 459.259 C 328.303 458.682, 328.748 457.927, 329.649 457.581 C 330.549 457.236, 331.008 456.674, 330.667 456.334 C 330.327 455.994, 329.382 456.268, 328.568 456.944 C 326.143 458.956, 324.851 457.149, 327.103 454.897 C 328.716 453.284, 329.428 453.111, 330.567 454.056 C 331.536 454.860, 332 454.893, 332 454.158 C 332 453.560, 331.100 452.589, 330 452 C 328.644 451.274, 328 451.263, 328 451.965" stroke="none" fill="#5ed2e3" fill-rule="evenodd"/><path d="M 398 51.086 C 436.533 55.892, 465.356 63.963, 498.119 79.119 C 562.487 108.895, 615.190 159.810, 647.793 223.715 C 666.616 260.611, 677.931 298.970, 681.922 339.424 C 683.310 353.485, 683.310 389.515, 681.922 403.576 C 677.931 444.030, 666.616 482.389, 647.793 519.285 C 639.313 535.907, 624.524 559.194, 614.315 572 C 588.599 604.257, 557.448 631.211, 523.042 650.976 C 484.103 673.344, 445.469 685.993, 398 691.914 C 392.521 692.598, 398.989 692.770, 422 692.554 C 448.051 692.308, 455.835 691.892, 467 690.149 C 482.909 687.664, 501.291 683.934, 502 683.047 C 502.275 682.703, 508.277 680.742, 515.338 678.689 C 522.399 676.637, 530.949 673.680, 534.338 672.120 C 537.727 670.560, 543.875 668.021, 548 666.480 C 552.125 664.938, 555.742 663.315, 556.038 662.873 C 556.333 662.431, 560.608 660.187, 565.538 657.887 C 570.467 655.587, 574.725 653.395, 575 653.017 C 575.275 652.639, 578.875 650.381, 583 648 C 587.125 645.619, 590.725 643.353, 591 642.965 C 591.275 642.576, 594.650 640.360, 598.500 638.039 C 602.350 635.718, 605.950 633.288, 606.500 632.637 C 607.050 631.987, 609.975 629.675, 613 627.500 C 616.025 625.325, 618.950 623.047, 619.500 622.437 C 620.050 621.828, 622.746 619.568, 625.490 617.415 C 638.890 606.903, 663.751 579.785, 677.094 561.127 C 684.975 550.108, 690 542.530, 690 541.666 C 690 541.129, 691.208 539.104, 692.685 537.168 C 694.162 535.232, 697.146 530.014, 699.316 525.574 C 701.486 521.133, 703.765 517.169, 704.381 516.765 C 705.015 516.349, 705.066 516.017, 704.500 516 C 703.879 515.981, 703.900 515.691, 704.555 515.235 C 705.135 514.831, 707.548 509.775, 709.916 504 C 712.285 498.225, 714.569 493.050, 714.993 492.500 C 715.893 491.330, 719.737 479.885, 723.052 468.500 C 724.334 464.100, 725.703 460.275, 726.095 460 C 727.096 459.298, 732.566 431.973, 734.702 417 C 737.269 399.016, 737.269 343.984, 734.702 326 C 732.566 311.027, 727.096 283.702, 726.095 283 C 725.703 282.725, 724.334 278.900, 723.052 274.500 C 719.737 263.115, 715.893 251.670, 714.993 250.500 C 714.569 249.950, 712.285 244.775, 709.916 239 C 707.548 233.225, 705.135 228.169, 704.555 227.765 C 703.900 227.309, 703.879 227.019, 704.500 227 C 705.066 226.983, 705.015 226.651, 704.381 226.235 C 703.765 225.831, 701.486 221.867, 699.316 217.426 C 697.146 212.986, 694.162 207.768, 692.685 205.832 C 691.208 203.896, 690 201.871, 690 201.334 C 690 200.470, 684.975 192.892, 677.094 181.873 C 663.751 163.215, 638.890 136.097, 625.490 125.585 C 622.746 123.432, 620.050 121.172, 619.500 120.563 C 618.950 119.953, 616.025 117.675, 613 115.500 C 609.975 113.325, 607.050 111.013, 606.500 110.363 C 605.950 109.712, 602.350 107.282, 598.500 104.961 C 594.650 102.640, 591.275 100.424, 591 100.035 C 590.725 99.647, 587.125 97.381, 583 95 C 578.875 92.619, 575.275 90.361, 575 89.983 C 574.725 89.605, 570.467 87.413, 565.538 85.113 C 560.608 82.813, 556.333 80.569, 556.038 80.127 C 555.742 79.685, 552.125 78.062, 548 76.520 C 543.875 74.979, 537.727 72.440, 534.338 70.880 C 530.949 69.320, 522.399 66.363, 515.338 64.311 C 508.277 62.258, 502.275 60.297, 502 59.953 C 501.291 59.066, 482.909 55.336, 467 52.851 C 455.835 51.108, 448.051 50.692, 422 50.446 C 398.989 50.230, 392.521 50.402, 398 51.086 M 204.182 206.017 C 176.857 208.273, 155.116 215.766, 138.072 228.803 C 123.789 239.727, 113.513 255.769, 108.800 274.500 C 106.857 282.219, 106.538 286.061, 106.559 301.500 C 106.580 316.699, 106.928 320.879, 108.800 328.363 C 112.145 341.741, 117.887 351.949, 127.467 361.552 C 134.240 368.341, 137.147 370.412, 146 374.756 C 162.019 382.615, 172.071 385.391, 208.500 392.014 C 245.139 398.676, 261.185 404.386, 271.467 414.424 C 280.627 423.368, 284.397 436.216, 282.156 450.852 C 278.245 476.392, 256.719 491.225, 219.542 493.997 C 184.956 496.576, 152.373 487.666, 126.547 468.567 C 118.988 462.977, 118.698 462.859, 116.956 464.651 C 113.913 467.782, 91 496.407, 91 497.079 C 91 497.426, 94.623 500.363, 99.052 503.605 C 121.508 520.046, 146.262 530.124, 175.500 534.730 C 191.119 537.191, 227.555 537.114, 241.500 534.590 C 272.225 529.030, 294.816 517.328, 309.308 499.465 C 317.209 489.726, 326 469.145, 326 460.386 C 326 459.134, 323.321 456.197, 318.760 452.449 C 301.891 438.587, 290 425.813, 290 421.554 C 290 420.307, 288.368 417.150, 286.373 414.538 C 275.205 399.911, 269.829 385.855, 269.629 370.756 L 269.500 361.012 264.500 359.551 C 256.235 357.136, 236.772 352.493, 214 347.505 C 189.311 342.097, 178.355 338.671, 170.470 333.893 C 156.815 325.617, 151.826 317.281, 151.172 301.647 C 149.967 272.869, 166.935 254.921, 200.500 249.470 C 230.485 244.600, 260.113 251.444, 287.025 269.457 C 291.589 272.512, 295.416 274.896, 295.530 274.755 C 295.644 274.615, 301.030 267.075, 307.497 258 C 313.965 248.925, 319.690 240.954, 320.220 240.287 C 322.095 237.926, 294.457 222.014, 277.500 215.693 C 255.148 207.359, 229.273 203.945, 204.182 206.017 M 388 267.839 L 388 326.679 390.377 327.762 C 391.684 328.358, 394.411 330.300, 396.436 332.078 C 405.850 340.344, 411 353.233, 411 368.532 C 411 383.729, 407.613 394.116, 397.698 409.327 C 394.214 414.673, 392.122 419.051, 391.759 421.762 C 391.450 424.063, 390.478 426.665, 389.599 427.544 C 388.241 428.902, 388 432.143, 388 449.071 L 388 469 390.525 469 C 392.364 469, 393.328 468.253, 394.076 466.250 C 397.441 457.230, 402.391 450.666, 407.480 448.472 C 409.946 447.409, 410.927 447.428, 413.160 448.582 C 414.644 449.350, 416.130 450.836, 416.463 451.884 C 417.203 454.214, 413.242 463.443, 408.920 469.461 C 406.068 473.433, 405.823 474.331, 406.449 478.508 C 407.739 487.108, 412.695 489.177, 419.757 484.061 C 424.581 480.566, 428.960 472.214, 431.968 460.768 C 433.786 453.850, 434 449.986, 434 424.018 L 434 395 503.500 395 L 573 395 573 464.500 L 573 534 595.500 534 L 618 534 618 371.500 L 618 209 595.500 209 L 573 209 573 280.500 L 573 352 503.500 352 L 434 352 434 280.500 L 434 209 411 209 L 388 209 388 267.839 M 388.036 372.047 L 388.072 409.500 390.541 406.500 C 394.403 401.807, 400.779 388.157, 402.451 381 C 406.211 364.913, 402.151 348.283, 392.086 338.547 L 388 334.594 388.036 372.047 M 277 371.021 C 277 380.631, 280.843 391.858, 288.069 403.360 C 293.936 412.700, 294.702 413.476, 299 414.444 C 300.375 414.753, 307.125 420.424, 314 427.046 L 326.500 439.085 326.833 434.793 C 327.616 424.710, 322.909 406.552, 316.821 396.165 C 310.092 384.686, 294.039 371.053, 280.750 365.531 L 277 363.973 277 371.021 M 388 507.500 L 388 534 411 534 L 434 534 434 510.797 L 434 487.594 430.250 491.248 C 425.483 495.893, 420.412 498, 414 498 C 403.715 498, 394 490.738, 394 483.050 C 394 481.439, 393.358 481, 391 481 L 388 481 388 507.500" stroke="none" fill="#089a7e" fill-rule="evenodd"/><path d="M 0 369.501 L 0 739.003 386.250 738.751 L 772.500 738.500 772.751 369.250 L 773.003 0 386.501 0 L 0 0 0 369.501 M 0.495 370 C 0.495 573.225, 0.610 656.363, 0.750 554.750 C 0.890 453.138, 0.890 286.863, 0.750 185.250 C 0.610 83.638, 0.495 166.775, 0.495 370 M 339 51.147 C 284.107 55.508, 226.668 76.422, 182 108.312 C 114.647 156.398, 68.772 227.177, 52.572 308 C 47.881 331.410, 46.641 344.680, 46.641 371.500 C 46.641 412.097, 52.288 444.998, 65.522 481.506 C 108.692 600.600, 216.600 682.732, 342 691.942 C 350.421 692.560, 376.835 692.867, 405 692.675 C 448.789 692.375, 454.811 692.134, 467 690.192 C 483.199 687.610, 501.308 683.914, 502 683.047 C 502.275 682.703, 508.277 680.742, 515.338 678.689 C 522.399 676.637, 530.949 673.680, 534.338 672.120 C 537.727 670.560, 543.875 668.021, 548 666.480 C 552.125 664.938, 555.742 663.315, 556.038 662.873 C 556.333 662.431, 560.608 660.187, 565.538 657.887 C 570.467 655.587, 574.725 653.395, 575 653.017 C 575.275 652.639, 578.875 650.381, 583 648 C 587.125 645.619, 590.725 643.353, 591 642.965 C 591.275 642.576, 594.650 640.360, 598.500 638.039 C 602.350 635.718, 605.950 633.288, 606.500 632.637 C 607.050 631.987, 609.975 629.675, 613 627.500 C 616.025 625.325, 618.950 623.047, 619.500 622.437 C 620.050 621.828, 622.746 619.568, 625.490 617.415 C 638.890 606.903, 663.751 579.785, 677.094 561.127 C 684.975 550.108, 690 542.530, 690 541.666 C 690 541.129, 691.208 539.104, 692.685 537.168 C 694.162 535.232, 697.146 530.014, 699.316 525.574 C 701.486 521.133, 703.765 517.169, 704.381 516.765 C 705.015 516.349, 705.066 516.017, 704.500 516 C 703.879 515.981, 703.900 515.691, 704.555 515.235 C 705.135 514.831, 707.548 509.775, 709.916 504 C 712.285 498.225, 714.569 493.050, 714.993 492.500 C 715.893 491.330, 719.737 479.885, 723.052 468.500 C 724.334 464.100, 725.703 460.275, 726.095 460 C 727.096 459.298, 732.566 431.973, 734.702 417 C 737.269 399.016, 737.269 343.984, 734.702 326 C 732.566 311.027, 727.096 283.702, 726.095 283 C 725.703 282.725, 724.334 278.900, 723.052 274.500 C 719.737 263.115, 715.893 251.670, 714.993 250.500 C 714.569 249.950, 712.285 244.775, 709.916 239 C 707.548 233.225, 705.135 228.169, 704.555 227.765 C 703.900 227.309, 703.879 227.019, 704.500 227 C 705.066 226.983, 705.015 226.651, 704.381 226.235 C 703.765 225.831, 701.486 221.867, 699.316 217.426 C 697.146 212.986, 694.162 207.768, 692.685 205.832 C 691.208 203.896, 690 201.871, 690 201.334 C 690 200.470, 684.975 192.892, 677.094 181.873 C 663.751 163.215, 638.890 136.097, 625.490 125.585 C 622.746 123.432, 620.050 121.172, 619.500 120.563 C 618.950 119.953, 616.025 117.675, 613 115.500 C 609.975 113.325, 607.050 111.013, 606.500 110.363 C 605.950 109.712, 602.350 107.282, 598.500 104.961 C 594.650 102.640, 591.275 100.424, 591 100.035 C 590.725 99.647, 587.125 97.381, 583 95 C 578.875 92.619, 575.275 90.361, 575 89.983 C 574.725 89.605, 570.467 87.413, 565.538 85.113 C 560.608 82.813, 556.333 80.569, 556.038 80.127 C 555.742 79.685, 552.125 78.062, 548 76.520 C 543.875 74.979, 537.727 72.440, 534.338 70.880 C 530.949 69.320, 522.399 66.363, 515.338 64.311 C 508.277 62.258, 502.275 60.297, 502 59.953 C 501.306 59.085, 483.176 55.386, 467 52.812 C 454.583 50.836, 449.328 50.650, 401.500 50.488 C 372.900 50.392, 344.775 50.688, 339 51.147" stroke="none" fill="#fafafa" fill-rule="evenodd"/></svg>