<svg xmlns="http://www.w3.org/2000/svg" width="334" height="320" viewBox="0 0 334 320" version="1.1"><path d="M 182.302 23.631 C 212.383 29.081, 242.873 46.882, 262.714 70.579 C 286.713 99.243, 298.425 136.400, 295.029 173.094 C 289.375 234.172, 246.617 283.246, 187 297.078 L 179.500 298.819 190.047 298.909 C 206.766 299.053, 224.046 294.578, 242.961 285.206 C 248.870 282.278, 263.955 272.577, 268 269.104 C 293.990 246.787, 311.492 216.545, 316.589 185.143 C 318.451 173.676, 318.416 146.882, 316.527 136.143 C 310.981 104.633, 292.872 73.065, 269.500 54.165 C 265.650 51.052, 262.275 48.274, 262 47.992 C 259.750 45.687, 243.597 36.575, 235.929 33.286 C 217.726 25.478, 201.160 21.953, 183.500 22.128 L 174.500 22.218 182.302 23.631 M 78.500 90.842 C 68.299 93.503, 62.156 96.762, 56.433 102.549 C 49.144 109.919, 46.500 117.360, 46.500 130.500 C 46.500 153.853, 55.659 162.644, 86.500 168.888 C 111.239 173.897, 116.844 176.244, 120.248 183.020 C 122.250 187.003, 122.611 196.942, 120.878 200.316 C 116.240 209.344, 105.877 213.996, 90.500 213.954 C 76.952 213.916, 66.556 210.892, 56.387 204.028 C 53.919 202.363, 51.707 201, 51.472 201 C 50.806 201, 40 214.298, 40 215.118 C 40 216.175, 52.805 224.344, 57.500 226.281 C 68.216 230.703, 73.120 231.489, 90 231.495 C 107.518 231.500, 111.427 230.763, 122.046 225.448 C 130.620 221.157, 138.670 210.939, 140.332 202.238 C 140.892 199.303, 140.494 198.552, 136.349 194.738 C 127.437 186.539, 125.959 184.529, 119.982 172.500 C 117.848 168.203, 117.001 165.050, 117.001 161.393 L 117 156.287 103.250 153.099 C 74.205 146.366, 70.522 144.776, 66.968 137.434 C 65.122 133.620, 64.856 131.875, 65.408 127.169 C 66.379 118.880, 69.648 114.528, 77.754 110.734 C 83.869 107.873, 85.161 107.644, 94.933 107.687 C 106.665 107.739, 112.063 109.257, 122.181 115.350 L 127.742 118.699 132.465 112.186 C 135.063 108.605, 137.391 105.145, 137.639 104.499 C 138.533 102.170, 124.235 94.490, 113.500 91.534 C 104.172 88.964, 86.998 88.625, 78.500 90.842 M 168 115.781 L 168 141.061 171.435 144.077 C 179.646 151.286, 180.040 162.126, 172.615 176.544 C 168.168 185.182, 168.004 185.811, 168.002 194.250 C 168.001 199.297, 168.415 203, 168.980 203 C 169.518 203, 170.861 201.233, 171.963 199.073 C 173.921 195.234, 176.972 193.247, 178.991 194.494 C 180.556 195.462, 180.184 198.186, 177.996 201.774 C 175.639 205.641, 175.456 208.304, 177.436 209.947 C 179.655 211.789, 182.468 209.718, 185.153 204.267 C 187.215 200.080, 187.542 197.767, 187.844 185.250 L 188.188 171 218.094 171 L 248 171 248 201 L 248 231 257.750 231 L 267.500 231 267.500 160.750 L 267.500 90.500 257.750 90.500 L 248 90.500 248 121.750 L 248 153 218 153 L 188 153 188 121.750 L 188 90.500 178 90.500 L 168 90.500 168 115.781 M 168.035 161.628 C 168.068 176.083, 168.202 177.277, 169.544 175 C 175.608 164.713, 175.617 152.077, 169.566 147.055 C 168.156 145.884, 168.004 147.333, 168.035 161.628 M 120 161.741 C 120 165.800, 123.783 174.511, 126.755 177.295 C 127.715 178.194, 131.456 181.363, 135.070 184.338 L 141.639 189.745 140.713 183.623 C 139.115 173.065, 133.942 165.463, 125.069 160.634 L 120 157.875 120 161.741 M 168 219.500 L 168 231 178 231 L 188 231 188 220.826 L 188 210.651 185.750 212.752 C 180.968 217.215, 174.283 216.417, 171.209 211.015 C 170.269 209.364, 169.162 208.010, 168.750 208.006 C 168.338 208.003, 168 213.175, 168 219.500" stroke="none" fill="#089a7e" fill-rule="evenodd"/><path d="M 94.269 107.693 C 95.242 107.947, 96.592 107.930, 97.269 107.656 C 97.946 107.382, 97.150 107.175, 95.500 107.195 C 93.850 107.215, 93.296 107.439, 94.269 107.693 M 131.278 139.250 C 130.087 140.789, 128.622 144.712, 129.605 143.728 C 129.996 143.337, 130.891 143.495, 131.594 144.078 C 133.132 145.354, 137 143.628, 137 141.665 C 137 138.625, 133.051 136.958, 131.278 139.250 M 155.362 139.500 C 154.474 141.814, 155.723 144, 157.933 144 C 160.482 144, 162.365 140.765, 160.753 139.153 C 159.124 137.524, 156.044 137.722, 155.362 139.500 M 318.400 162.500 C 318.401 170.750, 318.556 173.992, 318.744 169.704 C 318.932 165.417, 318.931 158.667, 318.742 154.704 C 318.552 150.742, 318.399 154.250, 318.400 162.500 M 193.250 152.739 C 196.412 152.937, 201.588 152.937, 204.750 152.739 C 207.912 152.541, 205.325 152.378, 199 152.378 C 192.675 152.378, 190.088 152.541, 193.250 152.739 M 158 186.132 C 153.875 190.002, 149.738 193.583, 148.807 194.089 C 147.495 194.802, 145.729 193.828, 140.947 189.755 C 137.555 186.865, 133.901 183.994, 132.827 183.376 C 131.753 182.758, 131.015 181.858, 131.187 181.376 C 131.359 180.894, 130.262 180.358, 128.750 180.184 C 123.989 179.636, 125.112 183.878, 131.250 189.626 C 139.329 197.192, 145.548 202, 147.254 202 C 150.663 202, 167.834 187.033, 169.321 182.765 C 169.820 181.332, 167.437 178.804, 165.816 179.047 C 165.642 179.073, 162.125 182.261, 158 186.132 M 87.264 232.718 C 88.784 232.947, 91.034 232.941, 92.264 232.704 C 93.494 232.467, 92.250 232.279, 89.500 232.286 C 86.750 232.294, 85.744 232.488, 87.264 232.718" stroke="none" fill="#5bd2e6" fill-rule="evenodd"/><path d="M 161.648 140.685 C 160.501 141.832, 160.956 143, 162.550 143 C 165.549 143, 169.831 145.991, 172.109 149.677 C 173.902 152.578, 174.412 154.859, 174.412 159.987 C 174.412 165.720, 173.934 167.426, 170.715 173.182 C 167.966 178.097, 167.360 179.924, 168.353 180.305 C 170.254 181.035, 175.685 171.629, 177.046 165.250 C 178.939 156.375, 175.144 145.190, 169.209 142.152 C 166.529 140.780, 162.362 139.971, 161.648 140.685 M 124.033 143.626 C 119.500 147.440, 116.999 152.986, 117.006 159.210 C 117.013 166.241, 118.285 170.458, 122.334 176.881 C 127.079 184.406, 127.926 181.061, 123.451 172.475 C 117.572 161.197, 118.882 150.844, 126.940 144.886 C 128.623 143.642, 130 142.259, 130 141.812 C 130 140.178, 127.074 141.067, 124.033 143.626 M 231.388 177.980 C 228.509 179.143, 225 183.793, 225 186.444 C 225 187.677, 222.944 190.759, 220.250 193.564 C 217.637 196.284, 213.995 201.350, 212.155 204.822 C 208.471 211.777, 206.669 213.098, 204.214 210.643 C 202.788 209.217, 202.746 208.478, 203.875 204.756 C 205.799 198.420, 205.779 195.611, 203.808 195.215 C 202.737 195, 201.540 195.990, 200.547 197.908 C 197.356 204.080, 191.416 204.632, 192.537 198.653 C 193.005 196.158, 192.782 195.130, 191.679 194.707 C 189.670 193.936, 187.607 196.584, 186.096 201.872 C 184.669 206.866, 180.772 211.293, 178.227 210.810 C 175.666 210.325, 175.566 205.770, 178.011 200.979 C 182.929 191.338, 176.273 191.892, 170.353 201.616 C 168.576 204.535, 165.500 202.181, 165.500 197.902 C 165.500 195.538, 164.996 194.445, 163.797 194.208 C 162.576 193.967, 161.233 195.577, 159.051 199.898 C 154.771 208.378, 151.776 209.610, 149.687 203.750 C 149.344 202.787, 148.149 202, 147.031 202 C 145.522 202, 145 202.654, 145 204.545 C 145 207.625, 149.111 212, 152.004 212 C 154.738 212, 159.661 209.429, 160.789 207.412 C 162.130 205.015, 169.864 207.511, 171.089 210.735 C 171.583 212.034, 173.565 213.756, 175.494 214.562 C 178.521 215.827, 179.458 215.836, 182.351 214.627 C 184.195 213.856, 186.700 211.825, 187.919 210.113 C 189.757 207.533, 190.809 207, 194.068 207 C 197.239 207, 198 207.361, 198 208.865 C 198 209.891, 198.933 211.916, 200.073 213.365 C 201.734 215.477, 202.993 216, 206.418 216 C 211.292 216, 212.317 215.105, 216.584 207.119 C 218.166 204.160, 221.107 199.885, 223.120 197.619 L 226.780 193.500 228.970 195.477 C 232.315 198.497, 238.321 198.134, 241.750 194.705 C 243.946 192.509, 244.500 191.036, 244.500 187.395 C 244.500 183.509, 244.018 182.405, 241.234 179.918 C 237.927 176.963, 235.223 176.431, 231.388 177.980 M 229.455 182.050 C 226.768 185.019, 227.005 190.776, 229.911 193.129 C 232.829 195.492, 237.129 195.526, 239.989 193.210 C 242.762 190.965, 243.012 184.776, 240.445 181.939 C 238.029 179.270, 231.915 179.331, 229.455 182.050" stroke="none" fill="#25627f" fill-rule="evenodd"/><path d="M 282.500 67 C 283.495 68.100, 284.535 69, 284.810 69 C 285.085 69, 284.495 68.100, 283.500 67 C 282.505 65.900, 281.465 65, 281.190 65 C 280.915 65, 281.505 65.900, 282.500 67 M 174.750 90.723 C 176.537 90.945, 179.463 90.945, 181.250 90.723 C 183.037 90.502, 181.575 90.320, 178 90.320 C 174.425 90.320, 172.963 90.502, 174.750 90.723 M 254.750 90.723 C 256.538 90.945, 259.462 90.945, 261.250 90.723 C 263.038 90.502, 261.575 90.320, 258 90.320 C 254.425 90.320, 252.963 90.502, 254.750 90.723 M 70.405 115.250 L 68.500 117.500 70.750 115.595 C 71.987 114.547, 73 113.535, 73 113.345 C 73 112.545, 72.195 113.136, 70.405 115.250 M 267.455 160.500 C 267.455 181.950, 267.587 190.583, 267.749 179.684 C 267.911 168.785, 267.910 151.235, 267.748 140.684 C 267.587 130.133, 267.454 139.050, 267.455 160.500 M 219.250 152.746 C 224.613 152.925, 233.387 152.925, 238.750 152.746 C 244.113 152.566, 239.725 152.419, 229 152.419 C 218.275 152.419, 213.887 152.566, 219.250 152.746 M 295.252 156.500 C 295.263 158.700, 295.468 159.482, 295.707 158.238 C 295.946 156.994, 295.937 155.194, 295.687 154.238 C 295.437 153.282, 295.241 154.300, 295.252 156.500 M 174.232 160 C 174.232 161.925, 174.438 162.713, 174.689 161.750 C 174.941 160.787, 174.941 159.213, 174.689 158.250 C 174.438 157.287, 174.232 158.075, 174.232 160 M 295.232 165 C 295.232 166.925, 295.438 167.713, 295.689 166.750 C 295.941 165.787, 295.941 164.213, 295.689 163.250 C 295.438 162.287, 295.232 163.075, 295.232 165 M 117 179.500 C 118.292 180.875, 119.574 182, 119.849 182 C 120.124 182, 119.292 180.875, 118 179.500 C 116.708 178.125, 115.426 177, 115.151 177 C 114.876 177, 115.708 178.125, 117 179.500 M 317.158 181 C 317.158 182.375, 317.385 182.938, 317.662 182.250 C 317.940 181.563, 317.940 180.438, 317.662 179.750 C 317.385 179.063, 317.158 179.625, 317.158 181 M 135 184.126 C 135 184.401, 136.301 185.872, 137.890 187.395 C 140.102 189.514, 140.961 189.851, 141.551 188.832 C 141.974 188.099, 141.942 187.844, 141.480 188.264 C 141.017 188.684, 139.370 187.813, 137.819 186.327 C 136.269 184.841, 135 183.851, 135 184.126 M 277.946 259.750 L 274.500 263.500 278.250 260.054 C 280.313 258.158, 282 256.471, 282 256.304 C 282 255.540, 281.154 256.260, 277.946 259.750 M 175.500 299.108 C 173.300 299.443, 176.900 299.713, 183.500 299.708 C 195.286 299.700, 195.869 299.341, 185 298.783 C 181.975 298.627, 177.700 298.774, 175.500 299.108" stroke="none" fill="#0f9a7e" fill-rule="evenodd"/><path d="M 152.500 8.113 C 119.167 11.233, 87.061 25.746, 63.158 48.500 C 38.248 72.211, 23.498 99.065, 17.061 132.422 C 14.220 147.142, 14.171 172.653, 16.956 187.017 C 23.542 220.996, 38.137 247.682, 63.158 271.500 C 108.530 314.690, 178.075 324.948, 234.500 296.774 C 259.396 284.343, 280.302 265.646, 295.298 242.398 C 300.180 234.830, 307.351 220.938, 308.407 217 C 308.776 215.625, 307.472 217.853, 305.508 221.951 C 292.506 249.089, 266.951 274.651, 240.500 286.978 C 221.003 296.064, 202.916 300.077, 182.500 299.847 C 175.350 299.766, 170.850 299.531, 172.500 299.324 C 234.922 291.490, 283.226 245.129, 293.531 183.159 C 295.628 170.554, 295.104 143.743, 292.537 132.252 C 286.421 104.871, 273.656 81.562, 254.045 61.960 C 234.171 42.096, 209.604 29.142, 182 23.969 L 172.500 22.188 185.215 22.094 C 225.928 21.793, 265.622 42.416, 291.772 77.457 C 299.638 87.998, 309.585 107.180, 312.462 117.357 C 313.373 120.579, 314.334 122.999, 314.597 122.736 C 315.466 121.867, 307.925 100.807, 303.798 92.577 C 282.847 50.793, 244.880 20.960, 200 11.018 C 191.394 9.111, 171.418 6.897, 165 7.139 C 163.075 7.211, 157.450 7.649, 152.500 8.113 M 79.634 90.092 C 66.629 92.747, 55.154 100.931, 49.670 111.463 C 46.639 117.285, 46.527 117.944, 46.514 130 C 46.502 140.948, 46.786 143.121, 48.801 147.500 C 52.748 156.075, 59.772 161.911, 70.406 165.450 C 73.104 166.347, 82.026 168.416, 90.232 170.046 C 107.425 173.462, 113.827 175.900, 117.958 180.605 C 122.987 186.333, 123.318 195.898, 118.728 202.835 C 113.321 211.005, 98.334 215.345, 82.735 213.258 C 72.691 211.914, 65.157 209.194, 57.152 204.020 L 51.095 200.105 44.962 207.789 C 37.942 216.583, 37.458 214.972, 49.322 222.279 C 62.056 230.121, 81.208 233.874, 99.118 232.036 C 114.923 230.414, 125.432 225.861, 132.868 217.413 C 136.596 213.177, 141 203.998, 141 200.462 C 141 199.658, 141.423 199, 141.941 199 C 143.355 199, 144.445 201.163, 144.618 204.314 C 144.814 207.880, 148.624 212, 151.724 212 C 154.744 212, 159.620 209.501, 160.835 207.331 C 161.650 205.874, 162.166 205.826, 164.884 206.952 L 168 208.243 168 219.621 L 168 231 178 231 L 188 231 188 220.059 C 188 208.004, 188.152 207.696, 194.248 207.383 C 197.567 207.212, 198 207.459, 198 209.523 C 198 213.678, 204.085 217.713, 208.382 216.407 C 211.738 215.387, 214.010 212.911, 217.014 207 C 218.552 203.975, 221.356 199.723, 223.245 197.552 L 226.681 193.604 229.475 195.802 C 233.598 199.045, 237.547 198.653, 241.600 194.600 C 244.048 192.152, 245 190.305, 245 188.004 C 245 181.812, 240.345 177, 234.353 177 C 231.144 177, 225 182.947, 225 186.053 C 225 187.373, 223.006 190.418, 220.187 193.403 C 217.540 196.207, 213.852 201.360, 211.991 204.857 C 208.252 211.881, 206.647 213.076, 204.214 210.643 C 202.791 209.220, 202.746 208.471, 203.864 204.756 C 206.399 196.330, 206.436 195, 204.139 195 C 202.835 195, 201.475 196.115, 200.515 197.970 C 198.899 201.097, 195.663 203.388, 193.761 202.754 C 193.140 202.547, 192.603 200.605, 192.566 198.439 C 192.509 195.016, 192.205 194.510, 190.250 194.579 C 188.039 194.657, 188 194.454, 188 182.829 L 188 171 218 171 L 248 171 248 201 L 248 231 258 231 L 268 231 268 160.500 L 268 90 258 90 L 248 90 248 121 L 248 152 218 152 L 188 152 188 121 L 188 90 178 90 L 168 90 168 115.579 L 168 141.159 164.783 140.452 C 163.013 140.064, 160.823 139.282, 159.915 138.715 C 157.665 137.310, 155 138.505, 155 140.919 C 155 143.579, 157.849 145.112, 160.136 143.683 C 161.348 142.926, 162.782 142.888, 164.701 143.563 L 167.500 144.546 167.726 161.023 L 167.952 177.500 158.943 185.479 C 153.988 189.867, 149.326 193.797, 148.583 194.213 C 145.917 195.705, 142.318 191.452, 141.587 185.948 C 140.389 176.915, 137.400 170.666, 131.723 165.327 C 128.850 162.626, 125.037 159.817, 123.250 159.086 C 121.015 158.172, 120.001 157.093, 120.004 155.629 C 120.013 150.409, 128.771 141.735, 131.633 144.110 C 132.486 144.818, 133.516 144.794, 134.936 144.034 C 137.369 142.732, 137.593 140.737, 135.502 139.002 C 134.280 137.987, 132.969 138.283, 128.361 140.615 C 122.566 143.547, 118.731 147.996, 117.445 153.281 C 116.965 155.253, 116.293 155.912, 115.134 155.547 C 114.235 155.265, 105.683 153.230, 96.129 151.025 C 73.147 145.722, 68.092 142.775, 65.990 133.457 C 63.658 123.114, 70.282 112.804, 81.323 109.595 C 88.338 107.555, 101.092 107.550, 108.068 109.583 C 111.056 110.453, 116.746 112.931, 120.714 115.089 L 127.928 119.012 131.771 113.756 C 139.498 103.187, 139.191 103.938, 136.605 101.904 C 133.117 99.161, 121.166 93.406, 115 91.500 C 108.433 89.471, 86.878 88.613, 79.634 90.092 M 318.252 144.500 C 318.263 146.700, 318.468 147.482, 318.707 146.238 C 318.946 144.994, 318.937 143.194, 318.687 142.238 C 318.437 141.282, 318.241 142.300, 318.252 144.500 M 230.736 181.250 C 227.978 183.345, 227.052 187.219, 228.492 190.644 C 230.498 195.414, 236.381 196.619, 240 193 C 242.614 190.386, 242.712 183.954, 240.171 181.655 C 238.009 179.698, 233.059 179.486, 230.736 181.250 M 163.946 189.564 C 161.323 192.277, 151.284 200.465, 149.222 201.573 C 149.069 201.655, 149.407 202.941, 149.974 204.431 C 151.692 208.951, 154.860 207.497, 158.539 200.500 C 160.784 196.231, 162.352 194.403, 163.975 194.164 C 166.071 193.855, 166.203 194.105, 165.608 197.275 C 165.143 199.753, 165.389 201.078, 166.481 201.984 C 167.820 203.095, 168 202.222, 168 194.622 C 168 189.880, 167.863 186, 167.696 186 C 167.529 186, 165.842 187.604, 163.946 189.564" stroke="none" fill="#ededed" fill-rule="evenodd"/></svg>